<svg xmlns="http://www.w3.org/2000/svg" width="16" height="13" viewBox="0 0 16 13">
    <g fill="none" fill-rule="evenodd">
        <path fill="none" d="M0-1h16v16H0z"/>
        <path fill="#FFF" d="M15.806 1.483a6.614 6.614 0 0 1-1.863.497A3.185 3.185 0 0 0 15.37.231a6.585 6.585 0 0 1-2.06.767A3.276 3.276 0 0 0 10.943 0C9.152 0 7.7 1.416 7.7 3.162c0 .248.029.49.084.72A9.282 9.282 0 0 1 1.1.58c-.279.467-.439 1.01-.439 1.59A3.14 3.14 0 0 0 2.104 4.8a3.288 3.288 0 0 1-1.47-.396v.04c0 1.533 1.119 2.81 2.602 3.1a3.304 3.304 0 0 1-1.464.055c.412 1.256 1.61 2.17 3.029 2.196a6.615 6.615 0 0 1-4.028 1.353A6.7 6.7 0 0 1 0 11.104a9.342 9.342 0 0 0 4.97 1.421c5.965 0 9.227-4.818 9.227-8.997 0-.137-.002-.273-.009-.409a6.483 6.483 0 0 0 1.618-1.636"/>
    </g>
</svg>
