<svg xmlns="http://www.w3.org/2000/svg" width="64" height="64" viewBox="0 0 64 64">
    <g fill="none" fill-rule="evenodd">
        <path fill="#BDBDBD" d="M32 .438C14.553.438.438 14.553.438 32 .438 49.447 14.553 63.562 32 63.562c17.447 0 31.562-14.115 31.562-31.562C63.562 14.553 49.447.438 32 .438z"/>
        <g fill="#EEE">
            <path d="M32 8.592c5.523 0 10.082 4.471 10.082 10.082A10.028 10.028 0 0 1 32 28.756c-5.611 0-10.082-4.646-10.082-10.17 0-5.523 4.559-9.994 10.082-9.994zM32 56.11c-8.329 0-15.78-4.296-20.077-10.784.088-6.663 13.414-10.345 20.077-10.345 6.663 0 19.989 3.682 20.077 10.345C47.78 51.814 40.329 56.11 32 56.11z"/>
        </g>
    </g>
</svg>
