<?xml version="1.0" encoding="iso-8859-1"?>
<!-- Generator: Adobe Illustrator 19.0.0, SVG Export Plug-In . SVG Version: 6.00 Build 0)  -->
<svg version="1.1" xmlns="http://www.w3.org/2000/svg" xmlns:xlink="http://www.w3.org/1999/xlink" x="0px" y="0px"
	 viewBox="0 0 190.733 62.786" xml:space="preserve">
<path style="fill:#9B9B9B;" d="M0.655,12.589c0-3.599,2.936-6.63,6.63-6.63h176.163c3.599,0,6.63,3.031,6.63,6.63v43.567
	c0,3.599-3.031,6.63-6.63,6.63H7.285c-3.599,0-6.63-2.936-6.63-6.63V12.589z"/>
<path style="fill:#434343;" d="M0.655,7.285c0-3.694,2.936-6.63,6.63-6.63h176.163c3.599,0,6.63,3.031,6.63,6.63v43.567
	c0,3.599-3.031,6.63-6.63,6.63H7.285c-3.599,0-6.63-3.031-6.63-6.63V7.285z"/>
<path style="fill:none;stroke:#434343;stroke-width:1.3105;stroke-miterlimit:10;" d="M0.655,7.285c0-3.694,2.936-6.63,6.63-6.63
	h176.163c3.599,0,6.63,3.031,6.63,6.63v43.567c0,3.599-3.031,6.63-6.63,6.63H7.285c-3.599,0-6.63-3.031-6.63-6.63V7.285z"/>
<path style="fill:#FFFFFF;" d="M63.733,15.241l2.557,6.724h-1.515l-0.474-1.515h-2.557l-0.568,1.515H59.66l2.557-6.724H63.733z
	 M63.828,19.408l-0.852-2.462l-0.947,2.462H63.828z"/>
<polygon style="fill:#FFFFFF;" points="67.995,22.06 65.817,15.241 67.332,15.241 68.847,19.976 70.363,15.241 71.878,15.241
	69.605,21.965 67.995,21.965 "/>
<path style="fill:#FFFFFF;" d="M75.477,15.241l2.557,6.724h-1.515l-0.474-1.515h-2.557l-0.568,1.515h-1.515l2.557-6.724H75.477z
	 M75.572,19.408l-0.852-2.462l-0.852,2.462H75.572z"/>
<rect x="78.698" y="15.241" style="fill:#FFFFFF;" width="1.515" height="6.724"/>
<polygon style="fill:#FFFFFF;" points="83.054,15.241 83.054,20.734 86.369,20.734 86.369,21.965 81.633,21.965 81.633,15.241 "/>
<path style="fill:#FFFFFF;" d="M90.726,15.241l2.557,6.724h-1.515l-0.474-1.515h-2.557l-0.568,1.515h-1.515l2.557-6.724H90.726z
	 M90.82,19.408l-0.852-2.462l-0.852,2.462H90.82z"/>
<path style="fill:#FFFFFF;" d="M97.071,15.241c0.284,0,0.663,0,0.852,0.095c0.284,0.095,0.474,0.189,0.663,0.284
	c0.189,0.095,0.379,0.284,0.474,0.474c0.095,0.189,0.189,0.474,0.189,0.758c0,0.379-0.095,0.663-0.189,0.852
	c-0.189,0.189-0.379,0.379-0.663,0.568c0.379,0.095,0.758,0.284,0.947,0.663c0.189,0.379,0.284,0.663,0.284,1.042
	s-0.095,0.663-0.189,0.852c-0.095,0.189-0.284,0.474-0.568,0.568c-0.189,0.189-0.474,0.284-0.758,0.379
	c-0.284,0.095-0.568,0.095-0.852,0.095h-3.315v-6.724h3.125V15.241z M96.882,17.987c0.284,0,0.474-0.095,0.663-0.189
	c0.189-0.095,0.284-0.284,0.284-0.568c0-0.189,0-0.284-0.095-0.379c-0.095-0.095-0.095-0.189-0.189-0.189
	c-0.095-0.095-0.189-0.095-0.284-0.095h-0.379h-1.421v1.61h1.421V17.987z M96.977,20.829h0.379c0.095,0,0.284-0.095,0.379-0.189
	c0.095-0.095,0.189-0.189,0.284-0.284c0.095-0.095,0.095-0.284,0.095-0.474c0-0.379-0.095-0.568-0.284-0.758
	c-0.189-0.189-0.474-0.189-0.758-0.189h-1.61v1.894H96.977z"/>
<polygon style="fill:#FFFFFF;" points="102.186,15.241 102.186,20.734 105.501,20.734 105.501,21.965 100.765,21.965
	100.765,15.241 "/>
<polygon style="fill:#FFFFFF;" points="111.467,15.241 111.467,16.472 107.868,16.472 107.868,17.893 111.183,17.893
	111.183,19.124 107.868,19.124 107.868,20.829 111.562,20.829 111.562,22.06 106.448,22.06 106.448,15.336 111.467,15.336 "/>
<path style="fill:#FFFFFF;" d="M115.256,17.23c0.189-0.474,0.379-0.852,0.663-1.137c0.284-0.284,0.663-0.568,1.042-0.758
	c0.379-0.189,0.852-0.284,1.421-0.284c0.568,0,0.947,0.095,1.421,0.284s0.758,0.474,1.042,0.758
	c0.284,0.284,0.474,0.663,0.663,1.137c0.189,0.474,0.189,0.947,0.189,1.421c0,0.474-0.095,0.947-0.189,1.421
	s-0.379,0.758-0.663,1.137c-0.284,0.284-0.663,0.568-1.042,0.758c-0.379,0.189-0.852,0.284-1.421,0.284
	c-0.474,0-0.947-0.095-1.421-0.284c-0.474-0.189-0.758-0.474-1.042-0.758c-0.284-0.284-0.474-0.663-0.663-1.137
	c-0.189-0.474-0.189-0.947-0.189-1.421C115.066,18.177,115.161,17.703,115.256,17.23 M116.676,19.503
	c0.095,0.284,0.189,0.474,0.284,0.758c0.189,0.189,0.379,0.379,0.568,0.474c0.189,0.095,0.474,0.189,0.852,0.189
	c0.379,0,0.663-0.095,0.852-0.189c0.189-0.095,0.379-0.284,0.568-0.474c0.189-0.189,0.284-0.474,0.284-0.758
	c0.095-0.284,0.095-0.568,0.095-0.852c0-0.284,0-0.568-0.095-0.852c-0.095-0.284-0.189-0.568-0.284-0.758
	c-0.189-0.189-0.379-0.379-0.568-0.474c-0.189-0.095-0.474-0.189-0.852-0.189c-0.379,0-0.663,0.095-0.852,0.189
	c-0.189,0.095-0.379,0.284-0.568,0.474c-0.189,0.189-0.284,0.474-0.284,0.758c-0.095,0.284-0.095,0.568-0.095,0.852
	C116.487,18.935,116.582,19.219,116.676,19.503"/>
<polygon style="fill:#FFFFFF;" points="124.253,15.241 127.095,19.787 127.095,15.241 128.515,15.241 128.515,21.965 127,21.965
	124.159,17.419 124.159,21.965 122.738,21.965 122.738,15.241 "/>
<polygon style="fill:#FFFFFF;" points="132.114,16.472 132.114,15.241 137.702,15.241 137.702,16.472 135.713,16.472
	135.713,21.965 134.198,21.965 134.198,16.472 "/>
<polygon style="fill:#FFFFFF;" points="139.975,15.241 139.975,17.798 142.722,17.798 142.722,15.241 144.238,15.241
	144.238,21.965 142.722,21.965 142.722,19.124 139.975,19.124 139.975,22.06 138.46,22.06 138.46,15.336 139.975,15.336 "/>
<polygon style="fill:#FFFFFF;" points="150.678,15.241 150.678,16.472 147.079,16.472 147.079,17.893 150.394,17.893
	150.394,19.124 147.079,19.124 147.079,20.829 150.772,20.829 150.772,22.06 145.658,22.06 145.658,15.336 150.678,15.336 "/>
<path style="fill:#FFFFFF;" d="M65.343,27.269l5.777,14.87h-2.178l-1.61-4.451h-6.251l-1.705,4.451h-2.084l5.777-14.87H65.343z
	 M66.669,36.077l-2.463-6.914l-2.557,6.914H66.669z"/>
<path style="fill:#FFFFFF;" d="M74.341,31.436v1.421c0.284-0.568,0.758-1.042,1.421-1.326c0.663-0.284,1.326-0.379,2.084-0.379
	c0.852,0,1.515,0.189,2.178,0.474c0.663,0.284,1.137,0.758,1.515,1.231c0.379,0.474,0.758,1.137,0.947,1.8
	c0.189,0.663,0.284,1.421,0.284,2.178c0,0.758-0.095,1.515-0.284,2.178c-0.189,0.663-0.474,1.231-0.947,1.8
	c-0.379,0.474-0.947,0.947-1.515,1.231c-0.663,0.284-1.326,0.474-2.178,0.474c-0.284,0-0.568,0-0.852-0.095
	c-0.284-0.095-0.663-0.189-0.947-0.284c-0.284-0.095-0.663-0.284-0.947-0.474c-0.284-0.189-0.568-0.474-0.758-0.758v5.588h-1.8
	V31.436H74.341z M80.686,35.225c-0.095-0.474-0.379-0.947-0.568-1.326c-0.284-0.379-0.663-0.663-1.042-0.852
	c-0.379-0.189-0.947-0.379-1.515-0.379c-0.568,0-1.136,0.095-1.515,0.379c-0.379,0.189-0.758,0.568-1.042,0.947
	c-0.284,0.379-0.474,0.852-0.568,1.326c-0.095,0.474-0.189,0.947-0.189,1.515c0,0.568,0.095,1.042,0.189,1.515
	c0.095,0.474,0.284,0.947,0.568,1.326c0.284,0.379,0.663,0.663,1.042,0.947c0.474,0.189,0.947,0.379,1.61,0.379
	c0.568,0,1.137-0.095,1.515-0.379c0.379-0.189,0.758-0.568,0.947-0.947c0.284-0.379,0.474-0.852,0.568-1.326
	c0.095-0.474,0.189-1.042,0.189-1.515C80.876,36.172,80.876,35.698,80.686,35.225"/>
<path style="fill:#FFFFFF;" d="M86.937,31.436v1.421c0.284-0.568,0.758-1.042,1.421-1.326c0.663-0.284,1.326-0.379,2.084-0.379
	c0.852,0,1.515,0.189,2.178,0.474c0.663,0.284,1.137,0.758,1.515,1.231c0.379,0.474,0.758,1.137,0.947,1.8
	c0.189,0.663,0.284,1.421,0.284,2.178c0,0.758-0.095,1.515-0.284,2.178c-0.189,0.663-0.474,1.231-0.947,1.8
	c-0.379,0.474-0.947,0.947-1.515,1.231c-0.663,0.284-1.326,0.474-2.178,0.474c-0.284,0-0.568,0-0.852-0.095
	c-0.284-0.095-0.663-0.189-0.947-0.284c-0.284-0.095-0.663-0.284-0.947-0.474c-0.284-0.189-0.568-0.474-0.758-0.758v5.588h-1.8
	V31.436H86.937z M93.283,35.225c-0.095-0.474-0.379-0.947-0.568-1.326c-0.284-0.379-0.663-0.663-1.042-0.852
	c-0.379-0.189-0.947-0.379-1.515-0.379c-0.568,0-1.136,0.095-1.515,0.379c-0.379,0.189-0.758,0.568-1.042,0.947
	c-0.284,0.379-0.474,0.852-0.568,1.326c-0.095,0.474-0.189,0.947-0.189,1.515c0,0.568,0.095,1.042,0.189,1.515
	c0.095,0.474,0.284,0.947,0.568,1.326c0.284,0.379,0.663,0.663,1.042,0.947c0.474,0.189,0.947,0.379,1.61,0.379
	c0.568,0,1.137-0.095,1.515-0.379c0.379-0.189,0.758-0.568,0.947-0.947c0.284-0.379,0.474-0.852,0.568-1.326
	c0.095-0.474,0.189-1.042,0.189-1.515C93.472,36.172,93.377,35.698,93.283,35.225"/>
<path style="fill:#FFFFFF;" d="M112.036,29.353c-0.663-0.474-1.515-0.758-2.557-0.758c-0.379,0-0.852,0-1.231,0.095
	c-0.379,0.095-0.758,0.189-1.042,0.379c-0.284,0.189-0.568,0.474-0.758,0.758c-0.189,0.284-0.284,0.758-0.284,1.231
	c0,0.474,0.095,0.852,0.379,1.137c0.284,0.284,0.663,0.474,1.042,0.663c0.379,0.189,0.947,0.284,1.515,0.474
	c0.568,0.095,1.137,0.284,1.705,0.379c0.568,0.095,1.137,0.284,1.705,0.474c0.568,0.189,1.042,0.474,1.515,0.758
	c0.474,0.284,0.852,0.758,1.042,1.231c0.284,0.474,0.379,1.137,0.379,1.8c0,0.758-0.189,1.515-0.568,1.989
	c-0.379,0.474-0.852,1.042-1.326,1.421c-0.568,0.379-1.137,0.568-1.894,0.758c-0.663,0.189-1.326,0.284-2.084,0.284
	c-0.852,0-1.61-0.095-2.368-0.284c-0.758-0.189-1.421-0.568-1.989-0.947c-0.568-0.379-1.042-0.947-1.326-1.61
	c-0.284-0.663-0.474-1.421-0.474-2.368h1.894c0,0.663,0.095,1.137,0.379,1.61c0.284,0.474,0.568,0.852,0.947,1.137
	c0.379,0.284,0.852,0.474,1.421,0.663c0.568,0.095,1.042,0.189,1.61,0.189c0.474,0,0.852,0,1.326-0.095
	c0.474-0.095,0.852-0.189,1.231-0.474c0.379-0.189,0.663-0.474,0.852-0.852c0.189-0.379,0.379-0.758,0.379-1.326
	c0-0.474-0.095-0.947-0.379-1.231c-0.284-0.284-0.663-0.568-1.042-0.758c-0.474-0.189-0.947-0.379-1.515-0.474
	c-0.568-0.095-1.137-0.284-1.705-0.379c-0.568-0.095-1.137-0.284-1.705-0.474c-0.568-0.189-1.042-0.379-1.515-0.663
	c-0.474-0.284-0.852-0.663-1.042-1.137c-0.284-0.474-0.379-1.042-0.379-1.705c0-0.758,0.189-1.421,0.474-1.989
	c0.284-0.568,0.758-1.042,1.231-1.326c0.474-0.379,1.042-0.663,1.705-0.758c0.663-0.189,1.326-0.284,1.989-0.284
	c0.758,0,1.515,0.095,2.084,0.284c0.568,0.189,1.231,0.474,1.705,0.852c0.474,0.379,0.852,0.852,1.137,1.515
	c0.284,0.663,0.474,1.326,0.474,2.084h-1.894C113.077,30.584,112.699,29.826,112.036,29.353"/>
<path style="fill:#FFFFFF;" d="M122.643,31.436v1.61h-2.178v6.724c0,0.189,0,0.379,0.095,0.474c0,0.095,0.095,0.189,0.189,0.284
	c0.095,0.095,0.189,0.095,0.379,0.095h0.663h0.852v1.61h-1.326c-0.474,0-0.852,0-1.137-0.095c-0.284-0.095-0.568-0.189-0.758-0.379
	c-0.189-0.189-0.379-0.379-0.474-0.663c-0.095-0.284-0.189-0.663-0.189-1.231v-6.819h-1.799v-1.61h1.799v-3.22h1.8v3.22H122.643z"/>
<path style="fill:#FFFFFF;" d="M124.537,34.562c0.189-0.663,0.568-1.326,1.042-1.8s0.947-0.947,1.61-1.231
	c0.663-0.284,1.421-0.474,2.273-0.474c0.852,0,1.61,0.189,2.273,0.474c0.663,0.284,1.231,0.663,1.61,1.231
	c0.474,0.474,0.758,1.137,1.042,1.8c0.189,0.663,0.379,1.421,0.379,2.178c0,0.758-0.095,1.515-0.379,2.178
	c-0.189,0.663-0.568,1.231-1.042,1.8c-0.474,0.568-0.947,0.947-1.61,1.231c-0.663,0.284-1.421,0.474-2.273,0.474
	c-0.852,0-1.61-0.189-2.273-0.474c-0.663-0.284-1.231-0.663-1.61-1.231c-0.474-0.474-0.758-1.137-1.042-1.8
	c-0.189-0.663-0.379-1.421-0.379-2.178C124.159,35.983,124.348,35.225,124.537,34.562 M126.337,38.54
	c0.189,0.474,0.379,0.947,0.758,1.231c0.284,0.379,0.663,0.568,1.042,0.758c0.379,0.189,0.852,0.284,1.326,0.284
	c0.474,0,0.852-0.095,1.326-0.284c0.379-0.189,0.758-0.474,1.042-0.758c0.284-0.379,0.568-0.758,0.758-1.231
	c0.189-0.474,0.284-1.042,0.284-1.705c0-0.663-0.095-1.231-0.284-1.705c-0.189-0.474-0.379-0.947-0.758-1.326
	c-0.284-0.379-0.663-0.568-1.042-0.758c-0.379-0.189-0.852-0.284-1.326-0.284c-0.474,0-0.852,0.095-1.326,0.284
	c-0.379,0.189-0.758,0.474-1.042,0.758c-0.284,0.379-0.568,0.758-0.758,1.326c-0.189,0.568-0.284,1.042-0.284,1.705
	C126.053,37.498,126.148,38.066,126.337,38.54"/>
<path style="fill:#FFFFFF;" d="M138.555,31.436v2.273c0.474-0.852,0.947-1.515,1.61-1.894c0.663-0.379,1.421-0.568,2.368-0.568
	v1.894c-0.663,0-1.326,0.095-1.8,0.284s-0.947,0.474-1.231,0.852c-0.284,0.379-0.568,0.852-0.663,1.326
	c-0.095,0.474-0.189,1.137-0.189,1.8v4.83h-1.8V31.436H138.555z"/>
<path style="fill:#FFFFFF;" d="M151.341,41.476c-0.852,0.568-1.799,0.947-3.031,0.947c-0.852,0-1.61-0.095-2.273-0.379
	c-0.663-0.284-1.136-0.663-1.61-1.137s-0.758-1.137-0.947-1.8c-0.189-0.663-0.379-1.421-0.379-2.273c0-0.852,0.095-1.61,0.379-2.273
	c0.284-0.663,0.568-1.231,1.042-1.8c0.474-0.474,0.947-0.852,1.61-1.137c0.663-0.284,1.326-0.379,1.989-0.379
	c0.947,0,1.799,0.189,2.368,0.568c0.663,0.379,1.136,0.852,1.515,1.515c0.379,0.663,0.663,1.231,0.758,1.989
	c0.189,0.758,0.189,1.421,0.189,2.084h-8.05c0,0.474,0,0.947,0.189,1.326c0.189,0.379,0.284,0.758,0.568,1.137
	c0.284,0.284,0.663,0.568,1.042,0.758c0.474,0.189,0.947,0.284,1.515,0.284c0.758,0,1.326-0.189,1.8-0.474
	c0.474-0.379,0.758-0.852,0.947-1.61h1.705C152.667,39.96,152.193,40.908,151.341,41.476 M150.962,34.562
	c-0.189-0.379-0.379-0.663-0.663-0.947c-0.284-0.284-0.568-0.474-0.947-0.663c-0.379-0.189-0.758-0.284-1.231-0.284
	s-0.852,0.095-1.231,0.284c-0.379,0.189-0.663,0.379-0.947,0.663c-0.284,0.284-0.474,0.568-0.663,0.947
	c-0.189,0.379-0.284,0.758-0.284,1.137h6.156C151.151,35.32,151.057,34.941,150.962,34.562"/>
<path style="fill:#FFFFFF;" d="M44.033,19.313c0.379-0.474,1.042-1.515,0.947-2.936c-0.947,0.095-2.084,0.758-2.747,1.515
	c-0.758,0.852-1.042,1.894-0.947,2.841C42.328,20.734,43.37,20.166,44.033,19.313"/>
<path style="fill:#FFFFFF;" d="M46.874,27.08c-0.095-1.61,0.663-3.125,2.084-3.978c-0.947-1.137-2.273-1.8-3.504-1.8
	c-0.947,0-1.515,0.189-2.084,0.474c-0.474,0.189-0.947,0.379-1.515,0.379c-0.568,0-1.136-0.189-1.705-0.379
	c-0.568-0.189-1.231-0.474-1.989-0.474c-1.421,0-2.936,0.947-3.883,2.368c-1.421,2.273-0.947,6.251,1.137,9.376
	c0.852,1.231,1.894,2.557,3.22,2.557c0.568,0,0.947-0.189,1.326-0.379c0.474-0.189,1.042-0.474,1.989-0.474s1.421,0.284,1.894,0.474
	c0.379,0.189,0.758,0.379,1.326,0.379c1.326,0,2.368-1.326,3.22-2.652c0.568-0.852,0.758-1.231,1.137-2.178
	C48.011,30.205,46.969,28.784,46.874,27.08"/>
</svg>
