<?xml version="1.0" encoding="iso-8859-1"?>
<!-- Generator: Adobe Illustrator 19.0.0, SVG Export Plug-In . SVG Version: 6.00 Build 0)  -->
<svg version="1.1" xmlns="http://www.w3.org/2000/svg" xmlns:xlink="http://www.w3.org/1999/xlink" x="0px" y="0px"
	 viewBox="0 0 190.922 62.881" xml:space="preserve">
<path style="fill:#44B3E6;" d="M0.75,12.684c0-3.599,3.031-6.63,6.63-6.63h176.163c3.599,0,6.63,3.031,6.63,6.63v43.567
	c0,3.599-3.031,6.63-6.63,6.63H7.38c-3.694,0-6.63-2.936-6.63-6.63V12.684z"/>
<path style="fill:#434343;" d="M0.75,7.38c0-3.599,3.031-6.63,6.63-6.63h176.163c3.599,0,6.63,3.031,6.63,6.63v43.567
	c0,3.694-3.031,6.63-6.63,6.63H7.38c-3.694,0-6.63-2.936-6.63-6.63V7.38z"/>
<path style="fill:none;stroke:#434343;stroke-width:1.5;stroke-miterlimit:10;" d="M0.75,7.38c0-3.599,3.031-6.63,6.63-6.63h176.163
	c3.694,0,6.63,3.031,6.63,6.63v43.567c0,3.694-2.936,6.63-6.63,6.63H7.38c-3.599,0-6.63-2.936-6.63-6.63V7.38z"/>
<path style="fill:#FFFFFF;" d="M78.371,15.43l2.557,6.724h-1.515l-0.474-1.515h-2.557l-0.568,1.515h-1.515l2.557-6.724H78.371z
	 M78.466,19.503l-0.852-2.462l-0.852,2.462H78.466z"/>
<polygon style="fill:#FFFFFF;" points="82.633,22.155 80.455,15.43 81.97,15.43 83.486,20.166 85.001,15.43 86.516,15.43
	84.243,22.155 "/>
<path style="fill:#FFFFFF;" d="M90.21,15.43l2.557,6.724h-1.515l-0.474-1.515h-2.557l-0.568,1.515h-1.515l2.557-6.724H90.21z
	 M90.21,19.503l-0.852-2.462l-0.852,2.462H90.21z"/>
<rect x="93.336" y="15.43" style="fill:#FFFFFF;" width="1.515" height="6.724"/>
<polygon style="fill:#FFFFFF;" points="97.787,15.43 97.787,20.923 101.102,20.923 101.102,22.155 96.366,22.155 96.366,15.43 "/>
<path style="fill:#FFFFFF;" d="M105.364,15.43l2.557,6.724h-1.515l-0.474-1.515h-2.557l-0.568,1.515h-1.515l2.557-6.724H105.364z
	 M105.459,19.503l-0.852-2.462l-0.852,2.462H105.459z"/>
<path style="fill:#FFFFFF;" d="M111.71,15.43c0.284,0,0.663,0,0.852,0.095c0.284,0.095,0.474,0.189,0.663,0.284
	c0.189,0.095,0.379,0.284,0.474,0.474c0.095,0.189,0.189,0.474,0.189,0.758c0,0.379-0.095,0.663-0.189,0.852
	c-0.189,0.189-0.379,0.379-0.663,0.568c0.379,0.095,0.758,0.284,0.947,0.663c0.189,0.379,0.284,0.663,0.284,1.042
	c0,0.379-0.095,0.663-0.189,0.852c-0.095,0.284-0.284,0.474-0.568,0.568c-0.189,0.189-0.474,0.284-0.758,0.379
	c-0.284,0.095-0.568,0.095-0.852,0.095h-3.315v-6.63H111.71z M111.52,18.177c0.284,0,0.474-0.095,0.663-0.189
	c0.189-0.095,0.284-0.379,0.284-0.568c0-0.189,0-0.284-0.095-0.379c-0.095-0.095-0.095-0.189-0.189-0.189
	c-0.095-0.095-0.189-0.095-0.284-0.095h-0.379H110.1v1.61h1.421V18.177z M111.615,21.018h0.379c0.095,0,0.284-0.095,0.379-0.095
	c0.095,0,0.189-0.189,0.284-0.284s0.095-0.284,0.095-0.474c0-0.379-0.095-0.568-0.284-0.758c-0.189-0.189-0.474-0.189-0.758-0.189
	h-1.61v1.894h1.515V21.018z"/>
<polygon style="fill:#FFFFFF;" points="116.824,15.43 116.824,20.923 120.139,20.923 120.139,22.155 115.403,22.155 115.403,15.43
	"/>
<polygon style="fill:#FFFFFF;" points="126.106,15.43 126.106,16.661 122.507,16.661 122.507,18.082 125.822,18.082 125.822,19.219
	122.507,19.219 122.507,20.829 126.2,20.829 126.2,22.06 121.086,22.06 121.086,15.43 "/>
<path style="fill:#FFFFFF;" d="M129.894,17.419c0.189-0.474,0.379-0.852,0.663-1.137c0.284-0.284,0.663-0.568,1.042-0.758
	c0.379-0.189,0.852-0.284,1.421-0.284c0.568,0,0.947,0.095,1.421,0.284c0.379,0.189,0.758,0.474,1.042,0.758
	c0.284,0.284,0.474,0.663,0.663,1.137c0.189,0.474,0.189,0.947,0.189,1.421s-0.095,0.947-0.189,1.421
	c-0.189,0.474-0.379,0.758-0.663,1.137c-0.284,0.284-0.663,0.568-1.042,0.758c-0.379,0.189-0.852,0.284-1.421,0.284
	c-0.474,0-0.947-0.095-1.421-0.284c-0.474-0.189-0.758-0.474-1.042-0.758c-0.284-0.284-0.474-0.663-0.663-1.137
	c-0.189-0.379-0.189-0.852-0.189-1.421C129.705,18.272,129.799,17.798,129.894,17.419 M131.315,19.598
	c0.095,0.284,0.189,0.474,0.284,0.758c0.095,0.284,0.379,0.379,0.568,0.474c0.189,0.095,0.474,0.189,0.852,0.189
	c0.379,0,0.663-0.095,0.852-0.189c0.189-0.095,0.379-0.284,0.568-0.474c0.189-0.189,0.284-0.474,0.284-0.758
	c0.095-0.284,0.095-0.568,0.095-0.852s0-0.568-0.095-0.852c-0.095-0.284-0.189-0.568-0.284-0.758
	c-0.189-0.189-0.379-0.379-0.568-0.474c-0.189-0.095-0.474-0.189-0.852-0.189c-0.379,0-0.663,0.095-0.852,0.189
	c-0.189,0.095-0.379,0.284-0.568,0.474c-0.189,0.189-0.284,0.474-0.284,0.758c-0.095,0.284-0.095,0.568-0.095,0.852
	C131.22,19.124,131.22,19.408,131.315,19.598"/>
<polygon style="fill:#FFFFFF;" points="138.892,15.43 141.733,19.976 141.733,15.43 143.154,15.43 143.154,22.155 141.638,22.155
	138.797,17.609 138.797,22.155 137.376,22.155 137.376,15.43 "/>
<path style="fill:#FFFFFF;" d="M80.55,26.417l5.777,14.87h-2.178l-1.61-4.451h-6.251l-1.705,4.451h-1.989l5.777-14.87H80.55z
	 M81.876,35.13l-2.463-6.914l-2.557,6.914H81.876z"/>
<path style="fill:#FFFFFF;" d="M89.358,30.489v1.705c0.758-1.326,1.894-1.989,3.504-1.989c0.663,0,1.326,0.095,1.8,0.284
	c0.474,0.189,0.852,0.474,1.137,0.852c0.284,0.379,0.474,0.758,0.568,1.231c0.095,0.474,0.189,1.042,0.189,1.61v7.103h-1.8v-7.293
	c0-0.663-0.189-1.231-0.568-1.61c-0.379-0.379-0.947-0.568-1.61-0.568c-0.568,0-1.042,0.095-1.421,0.284
	c-0.379,0.189-0.758,0.379-0.947,0.663c-0.284,0.284-0.474,0.663-0.568,1.042c-0.095,0.379-0.189,0.852-0.189,1.326v6.062h-1.8
	V30.489H89.358z"/>
<path style="fill:#FFFFFF;" d="M106.353,41.286v-1.421c-0.284,0.568-0.758,1.042-1.421,1.326c-0.663,0.284-1.326,0.379-2.084,0.379
	c-0.852,0-1.515-0.189-2.178-0.474c-0.663-0.284-1.136-0.758-1.515-1.231c-0.379-0.474-0.758-1.137-0.947-1.8
	c-0.189-0.663-0.284-1.421-0.284-2.178s0.095-1.515,0.284-2.178c0.189-0.663,0.474-1.231,0.947-1.8s0.947-0.947,1.515-1.231
	c0.663-0.284,1.326-0.474,2.178-0.474c0.284,0,0.568,0,0.852,0.095c0.284,0.095,0.663,0.189,0.947,0.284
	c0.284,0.095,0.663,0.284,0.947,0.474c0.284,0.189,0.568,0.474,0.758,0.758v-5.493h1.8v14.87h-1.8V41.286z M100.007,37.498
	c0.095,0.474,0.379,0.947,0.568,1.326c0.189,0.379,0.663,0.663,1.042,0.852c0.379,0.189,0.947,0.379,1.515,0.379
	c0.568,0,1.137-0.095,1.515-0.379c0.379-0.189,0.758-0.568,1.042-0.947c0.284-0.379,0.474-0.852,0.568-1.326
	s0.189-0.947,0.189-1.515c0-0.568-0.095-1.042-0.189-1.515s-0.284-0.947-0.568-1.326c-0.284-0.379-0.663-0.663-1.042-0.947
	c-0.474-0.189-0.947-0.379-1.61-0.379c-0.568,0-1.136,0.095-1.515,0.379c-0.379,0.189-0.758,0.568-1.042,0.947
	c-0.284,0.379-0.474,0.852-0.568,1.326c-0.095,0.474-0.189,1.042-0.189,1.515C99.818,36.551,99.818,37.024,100.007,37.498"/>
<path style="fill:#FFFFFF;" d="M112.699,30.489v2.273c0.474-0.852,0.947-1.515,1.61-1.894c0.663-0.379,1.421-0.568,2.368-0.568
	v1.894c-0.663,0-1.326,0.095-1.799,0.284s-0.947,0.474-1.231,0.852c-0.284,0.379-0.568,0.852-0.663,1.326
	c-0.095,0.474-0.189,1.137-0.189,1.8v4.83h-1.8V30.489H112.699z"/>
<path style="fill:#FFFFFF;" d="M117.529,33.709c0.189-0.663,0.568-1.326,1.042-1.8c0.474-0.474,0.947-0.947,1.61-1.231
	c0.663-0.284,1.421-0.474,2.273-0.474c0.852,0,1.61,0.189,2.273,0.474c0.663,0.284,1.231,0.663,1.61,1.231
	c0.379,0.568,0.758,1.137,1.042,1.8c0.189,0.663,0.379,1.421,0.379,2.178s-0.095,1.515-0.379,2.178
	c-0.189,0.663-0.568,1.231-1.042,1.8c-0.474,0.568-0.947,0.947-1.61,1.231c-0.663,0.284-1.421,0.474-2.273,0.474
	c-0.852,0-1.61-0.189-2.273-0.474c-0.663-0.284-1.231-0.663-1.61-1.231c-0.474-0.474-0.758-1.137-1.042-1.8
	c-0.189-0.663-0.379-1.421-0.379-2.178C117.245,35.13,117.339,34.372,117.529,33.709 M119.423,37.687
	c0.189,0.474,0.379,0.947,0.758,1.231c0.284,0.379,0.663,0.568,1.042,0.758c0.379,0.189,0.852,0.284,1.326,0.284
	c0.474,0,0.852-0.095,1.326-0.284c0.379-0.189,0.758-0.474,1.042-0.758c0.284-0.379,0.568-0.758,0.758-1.231
	c0.189-0.474,0.284-1.042,0.284-1.705c0-0.663-0.095-1.231-0.284-1.705c-0.189-0.474-0.379-0.947-0.758-1.326
	c-0.284-0.379-0.663-0.568-1.042-0.758c-0.379-0.189-0.852-0.284-1.326-0.284c-0.474,0-0.852,0.095-1.326,0.284
	c-0.379,0.189-0.758,0.474-1.042,0.758c-0.284,0.379-0.568,0.758-0.758,1.326c-0.189,0.568-0.284,1.042-0.284,1.705
	C119.139,36.646,119.234,37.119,119.423,37.687"/>
<path style="fill:#FFFFFF;" d="M130.125,26.417h1.8v2.178h-1.8V26.417z M131.83,41.286h-1.8V30.489h1.8V41.286z"/>
<path style="fill:#FFFFFF;" d="M142.722,41.286v-1.421c-0.284,0.568-0.758,1.042-1.421,1.326c-0.663,0.284-1.326,0.379-2.084,0.379
	c-0.852,0-1.515-0.189-2.178-0.474c-0.663-0.284-1.137-0.758-1.515-1.231c-0.379-0.474-0.758-1.137-0.947-1.8
	c-0.189-0.663-0.284-1.421-0.284-2.178s0.095-1.515,0.284-2.178c0.189-0.663,0.474-1.231,0.947-1.8s0.947-0.947,1.515-1.231
	c0.663-0.284,1.326-0.474,2.178-0.474c0.284,0,0.568,0,0.852,0.095c0.284,0.095,0.663,0.189,0.947,0.284
	c0.284,0.095,0.663,0.284,0.947,0.474c0.284,0.189,0.568,0.474,0.758,0.758v-5.493h1.799v14.87h-1.799V41.286z M136.282,37.498
	c0.095,0.474,0.379,0.947,0.568,1.326c0.189,0.379,0.663,0.663,1.042,0.852c0.379,0.189,0.947,0.379,1.515,0.379
	c0.568,0,1.137-0.095,1.515-0.379c0.379-0.189,0.758-0.568,1.042-0.947c0.284-0.379,0.474-0.852,0.568-1.326
	c0.095-0.474,0.189-0.947,0.189-1.515c0-0.568-0.095-1.042-0.189-1.515c-0.095-0.474-0.284-0.947-0.568-1.326
	c-0.284-0.379-0.663-0.663-1.042-0.947c-0.474-0.189-0.947-0.379-1.61-0.379c-0.568,0-1.136,0.095-1.515,0.379
	c-0.379,0.189-0.758,0.568-1.042,0.947c-0.284,0.379-0.474,0.852-0.568,1.326c-0.095,0.474-0.189,1.042-0.189,1.515
	C136.092,36.551,136.187,37.024,136.282,37.498"/>
<path style="fill:#FFFFFF;" d="M50.905,21.681h7.293c0.379,0,0.379,0,0.379,0.379v7.861v2.747c0,0.947-0.568,1.705-1.515,1.894
	c-0.379,0.095-0.758,0-1.231,0c-0.379,0-0.379,0-0.379,0.379v3.41c0,0.947-0.758,1.705-1.705,1.705
	c-0.947,0-1.705-0.758-1.705-1.705v-3.504c0-0.189-0.095-0.284-0.284-0.284h-1.799c-0.189,0-0.284,0.095-0.284,0.284v3.504
	c0,0.758-0.284,1.231-0.947,1.515c-0.663,0.284-1.231,0.284-1.799-0.189c-0.474-0.284-0.663-0.758-0.663-1.326v-3.504
	c0-0.189-0.095-0.284-0.284-0.284h-0.852c-1.137,0-1.894-0.758-1.894-1.894v-0.947v-9.755c0-0.284,0-0.379,0.379-0.379
	C45.98,21.681,48.443,21.681,50.905,21.681"/>
<path style="fill:#FFFFFF;" d="M50.81,21.018h-7.293c-0.379,0-0.379,0-0.379-0.379c0.189-2.462,1.515-4.357,3.694-5.588
	c0.189-0.095,0.189-0.189,0.095-0.379c-0.284-0.568-0.568-1.137-0.947-1.61c0-0.095-0.095-0.189-0.095-0.189
	c-0.095-0.189-0.095-0.284,0.095-0.379c0.189-0.095,0.284,0,0.379,0.095c0.189,0.379,0.379,0.758,0.568,1.042
	c0.189,0.284,0.284,0.568,0.474,0.852c0.095,0.189,0.189,0.189,0.284,0.095c1.137-0.474,2.368-0.663,3.504-0.568
	c0.947,0,1.8,0.189,2.652,0.568c0.189,0.095,0.284,0,0.379-0.189c0.284-0.568,0.568-1.137,0.947-1.705
	c0-0.095,0.095-0.095,0.095-0.189c0.095-0.095,0.189-0.284,0.379-0.189c0.189,0.095,0.095,0.284,0.095,0.379
	c-0.095,0.284-0.284,0.474-0.379,0.758c-0.189,0.379-0.379,0.758-0.663,1.137c-0.095,0.189-0.095,0.284,0.095,0.379
	c1.8,1.042,3.031,2.557,3.504,4.546c0.095,0.379,0.095,0.663,0.189,1.042c0,0.284,0,0.284-0.284,0.284h-4.736
	C52.61,21.018,51.757,21.018,50.81,21.018 M54.978,17.703c0-0.379-0.284-0.663-0.663-0.663c-0.379,0-0.663,0.284-0.663,0.663
	c0,0.379,0.284,0.663,0.663,0.663C54.694,18.366,54.978,17.987,54.978,17.703 M47.969,17.703c0-0.379-0.284-0.663-0.663-0.663
	c-0.379,0-0.568,0.284-0.663,0.568c0,0.379,0.284,0.663,0.663,0.663C47.685,18.366,47.969,18.082,47.969,17.703"/>
<path style="fill:#FFFFFF;" d="M62.555,26.701v3.504c0,0.947-0.663,1.61-1.515,1.705c-0.947,0.095-1.799-0.663-1.894-1.61v-1.989
	v-5.304c0-0.758,0.379-1.231,1.042-1.61c0.663-0.284,1.326-0.189,1.894,0.284c0.379,0.284,0.568,0.758,0.568,1.231
	C62.555,24.238,62.555,25.47,62.555,26.701"/>
<path style="fill:#FFFFFF;" d="M42.57,26.701V30.3c0,0.947-0.758,1.705-1.705,1.705c-0.852,0-1.705-0.758-1.705-1.61v-7.293
	c0-0.947,0.758-1.61,1.8-1.61c0.852,0,1.61,0.758,1.61,1.705V26.701z"/>
</svg>
