<?xml version="1.0" encoding="iso-8859-1"?>
<!-- Generator: Adobe Illustrator 19.0.0, SVG Export Plug-In . SVG Version: 6.00 Build 0)  -->
<svg version="1.1" xmlns="http://www.w3.org/2000/svg" xmlns:xlink="http://www.w3.org/1999/xlink" x="0px" y="0px"
	 viewBox="0 0 190.733 63.165" xml:space="preserve">
<path style="fill:#F37046;" d="M0.655,12.589c0-3.599,3.031-6.63,6.63-6.63h176.163c3.694,0,6.63,3.031,6.63,6.63v43.946
	c0,3.599-2.936,6.63-6.63,6.63H7.285c-3.599,0-6.63-3.031-6.63-6.63V12.589z"/>
<path style="fill:#434343;" d="M0.655,7.285c0-3.599,3.031-6.63,6.63-6.63h176.163c3.694,0,6.63,3.031,6.63,6.63v43.946
	c0,3.599-2.936,6.63-6.63,6.63H7.285c-3.599,0-6.63-3.031-6.63-6.63V7.285z"/>
<path style="fill:none;stroke:#434343;stroke-width:1.3105;stroke-miterlimit:10;" d="M0.655,7.285c0-3.599,3.031-6.63,6.63-6.63
	h176.163c3.694,0,6.63,3.031,6.63,6.63v43.946c0,3.599-2.936,6.63-6.63,6.63H7.285c-3.599,0-6.63-3.031-6.63-6.63V7.285z"/>
<path style="fill:#FFFFFF;" d="M80.497,26.796l5.777,14.964h-2.178l-1.61-4.546h-6.251L74.53,41.76h-1.989l5.777-14.964H80.497z
	 M81.918,35.604l-2.557-7.009l-2.557,7.009H81.918z"/>
<path style="fill:#FFFFFF;" d="M89.4,30.963v1.61c0.852-1.231,1.989-1.8,3.504-1.8c0.663,0,1.231,0.095,1.8,0.379
	c0.568,0.284,0.947,0.758,1.136,1.421c0.379-0.568,0.852-1.042,1.421-1.326c0.568-0.284,1.231-0.474,1.989-0.474
	c0.568,0,1.042,0.095,1.515,0.189c0.474,0.095,0.852,0.284,1.136,0.568c0.284,0.284,0.568,0.568,0.758,0.947
	c0.189,0.379,0.284,0.852,0.284,1.421v7.956h-1.894v-7.103c0-0.379,0-0.663-0.095-0.947c-0.095-0.284-0.189-0.568-0.284-0.758
	c-0.189-0.189-0.379-0.379-0.663-0.474c-0.284-0.095-0.663-0.189-1.042-0.189c-0.852,0-1.61,0.284-2.084,0.758
	s-0.758,1.137-0.758,1.989v6.724h-1.8v-7.103c0-0.379,0-0.663-0.095-0.947c-0.095-0.284-0.189-0.568-0.284-0.758
	c-0.095-0.189-0.379-0.379-0.568-0.474c-0.284-0.095-0.568-0.189-0.947-0.189c-0.474,0-0.947,0.095-1.326,0.284
	s-0.663,0.474-0.852,0.758c-0.189,0.284-0.379,0.568-0.474,0.947c-0.095,0.284-0.189,0.568-0.189,0.758v6.724h-1.8V30.963H89.4z"/>
<path style="fill:#FFFFFF;" d="M115.256,41.76c-0.284,0.189-0.758,0.284-1.231,0.284s-0.852-0.095-1.136-0.379
	c-0.284-0.284-0.474-0.758-0.474-1.326c-0.474,0.568-1.042,1.042-1.705,1.231c-0.663,0.284-1.326,0.379-2.084,0.379
	c-0.474,0-0.947-0.095-1.421-0.189c-0.474-0.095-0.852-0.284-1.137-0.568c-0.284-0.189-0.568-0.568-0.758-0.947
	c-0.189-0.379-0.284-0.852-0.284-1.421c0-0.568,0.095-1.137,0.284-1.515c0.189-0.379,0.474-0.663,0.852-0.947
	c0.379-0.284,0.758-0.474,1.136-0.568c0.379-0.095,0.852-0.189,1.326-0.284c0.474-0.095,0.947-0.189,1.421-0.189
	c0.474-0.095,0.852-0.095,1.136-0.189c0.379-0.095,0.568-0.189,0.758-0.379c0.189-0.189,0.284-0.474,0.284-0.758
	c0-0.379-0.095-0.663-0.189-0.947c-0.189-0.284-0.379-0.379-0.568-0.568c-0.189-0.095-0.474-0.189-0.758-0.284
	c-0.284,0-0.568-0.095-0.852-0.095c-0.758,0-1.421,0.189-1.894,0.474c-0.474,0.284-0.758,0.852-0.852,1.61h-1.8
	c0-0.663,0.189-1.231,0.379-1.705c0.284-0.474,0.568-0.852,1.042-1.137c0.379-0.284,0.852-0.474,1.421-0.663
	c0.568-0.095,1.136-0.189,1.705-0.189c0.474,0,0.947,0,1.421,0.095s0.947,0.189,1.326,0.474c0.379,0.189,0.663,0.474,0.947,0.947
	c0.189,0.379,0.379,0.947,0.379,1.515v5.588c0,0.379,0,0.758,0.095,0.947s0.189,0.284,0.474,0.284c0.189,0,0.379,0,0.568-0.095
	v1.515H115.256z M112.32,36.172c-0.189,0.189-0.474,0.284-0.852,0.379c-0.379,0.095-0.758,0.095-1.137,0.189
	c-0.379,0.095-0.758,0.095-1.231,0.189c-0.379,0.095-0.758,0.189-1.042,0.284c-0.284,0.095-0.568,0.379-0.758,0.568
	c-0.189,0.284-0.284,0.568-0.284,1.042c0,0.284,0.095,0.568,0.189,0.758s0.284,0.379,0.474,0.474
	c0.189,0.095,0.379,0.189,0.663,0.284c0.284,0.095,0.474,0.095,0.758,0.095c0.568,0,1.042-0.095,1.515-0.284
	c0.379-0.189,0.758-0.379,1.042-0.568c0.284-0.189,0.474-0.474,0.568-0.758c0.095-0.284,0.189-0.568,0.189-0.758v-1.894H112.32z"/>
<polygon style="fill:#FFFFFF;" points="122.738,32.478 116.677,32.478 116.677,30.868 125.011,30.868 125.011,32.099 118.381,40.15
	125.295,40.15 125.295,41.76 116.203,41.76 116.203,40.434 "/>
<path style="fill:#FFFFFF;" d="M127,34.088c0.189-0.663,0.568-1.326,1.042-1.8s0.947-0.947,1.61-1.231
	c0.663-0.284,1.421-0.474,2.273-0.474c0.852,0,1.61,0.189,2.273,0.474c0.663,0.284,1.231,0.663,1.61,1.231
	c0.474,0.474,0.758,1.137,1.042,1.8c0.189,0.663,0.379,1.421,0.379,2.273s-0.095,1.515-0.379,2.178
	c-0.189,0.663-0.568,1.326-1.042,1.8c-0.474,0.474-0.947,0.947-1.61,1.231c-0.663,0.284-1.421,0.474-2.273,0.474
	c-0.852,0-1.61-0.189-2.273-0.474c-0.663-0.284-1.231-0.663-1.61-1.231c-0.474-0.474-0.758-1.137-1.042-1.8
	c-0.189-0.663-0.379-1.421-0.379-2.178C126.621,35.604,126.811,34.846,127,34.088 M128.8,38.161
	c0.189,0.474,0.379,0.947,0.758,1.231c0.284,0.379,0.663,0.568,1.042,0.758c0.379,0.189,0.852,0.284,1.326,0.284
	s0.852-0.095,1.326-0.284c0.379-0.189,0.758-0.474,1.042-0.758c0.284-0.379,0.568-0.758,0.758-1.231
	c0.189-0.474,0.284-1.137,0.284-1.705c0-0.663-0.095-1.231-0.284-1.705c-0.189-0.474-0.379-0.947-0.758-1.326
	c-0.284-0.379-0.663-0.568-1.042-0.758c-0.379-0.189-0.852-0.284-1.326-0.284s-0.852,0.095-1.326,0.284
	c-0.379,0.189-0.758,0.474-1.042,0.758c-0.284,0.379-0.568,0.758-0.758,1.326c-0.189,0.474-0.284,1.137-0.284,1.705
	C128.61,37.024,128.705,37.593,128.8,38.161"/>
<path style="fill:#FFFFFF;" d="M141.112,30.963v1.705c0.758-1.326,1.894-1.989,3.504-1.989c0.663,0,1.326,0.095,1.8,0.284
	c0.474,0.189,0.852,0.474,1.136,0.852c0.284,0.379,0.474,0.758,0.568,1.231c0.095,0.474,0.189,1.042,0.189,1.61v7.103h-1.8v-7.293
	c0-0.663-0.189-1.231-0.568-1.61c-0.379-0.379-0.947-0.568-1.61-0.568c-0.568,0-1.042,0.095-1.421,0.284
	c-0.379,0.189-0.758,0.379-0.947,0.758c-0.284,0.284-0.474,0.663-0.568,1.042c-0.095,0.379-0.189,0.852-0.189,1.326v6.156h-1.8
	V30.963H141.112z"/>
<path style="fill:#FFFFFF;" d="M79.076,23.386c-0.284,0.095-0.663,0.189-0.947,0.189c-0.474,0-0.947-0.095-1.421-0.284
	c-0.379-0.189-0.758-0.474-1.042-0.758c-0.284-0.284-0.474-0.663-0.663-1.137c-0.189-0.474-0.189-0.852-0.189-1.421
	c0-0.474,0.095-0.947,0.189-1.421c0.095-0.474,0.379-0.852,0.663-1.137c0.284-0.284,0.663-0.568,1.042-0.758
	c0.379-0.189,0.852-0.284,1.421-0.284c0.379,0,0.663,0.095,1.042,0.189c0.284,0.095,0.663,0.284,0.852,0.474
	c0.189,0.189,0.474,0.474,0.663,0.758s0.284,0.663,0.284,1.042H79.55c-0.095-0.379-0.284-0.663-0.474-0.852
	c-0.284-0.189-0.568-0.284-0.947-0.284c-0.379,0-0.663,0.095-0.852,0.189c-0.189,0.095-0.379,0.284-0.568,0.568
	c-0.189,0.284-0.284,0.474-0.284,0.758c-0.095,0.284-0.095,0.568-0.095,0.852c0,0.284,0,0.568,0.095,0.852s0.189,0.474,0.284,0.758
	c0.095,0.284,0.379,0.379,0.568,0.474c0.189,0.095,0.474,0.189,0.852,0.189c0.474,0,0.852-0.095,1.136-0.379
	c0.284-0.284,0.379-0.568,0.474-1.137h-1.515v-1.137h2.841v3.694h-0.947l-0.189-0.758C79.645,23.007,79.36,23.291,79.076,23.386"/>
<polygon style="fill:#FFFFFF;" points="87.411,16.661 87.411,17.893 83.812,17.893 83.812,19.313 87.127,19.313 87.127,20.45
	83.812,20.45 83.812,22.155 87.505,22.155 87.505,23.386 82.391,23.386 82.391,16.567 87.411,16.567 "/>
<polygon style="fill:#FFFFFF;" points="87.979,17.893 87.979,16.661 93.567,16.661 93.567,17.893 91.578,17.893 91.578,23.481
	90.063,23.481 90.063,17.893 "/>
<rect x="97.166" y="16.661" style="fill:#FFFFFF;" width="1.515" height="6.819"/>
<polygon style="fill:#FFFFFF;" points="99.534,17.893 99.534,16.661 105.122,16.661 105.122,17.893 103.133,17.893 103.133,23.481
	101.617,23.481 101.617,17.893 "/>
<path style="fill:#FFFFFF;" d="M108.626,18.65c0.189-0.474,0.379-0.852,0.663-1.137c0.284-0.284,0.663-0.568,1.042-0.758
	c0.379-0.189,0.852-0.284,1.421-0.284c0.568,0,0.947,0.095,1.421,0.284c0.379,0.189,0.758,0.474,1.042,0.758
	c0.284,0.284,0.474,0.663,0.663,1.137c0.189,0.474,0.189,0.947,0.189,1.421s-0.095,0.947-0.189,1.421
	c-0.189,0.474-0.379,0.758-0.663,1.137c-0.284,0.379-0.663,0.568-1.042,0.758c-0.379,0.189-0.852,0.284-1.421,0.284
	c-0.474,0-0.947-0.095-1.421-0.284c-0.379-0.189-0.758-0.474-1.042-0.758c-0.284-0.284-0.474-0.663-0.663-1.137
	c-0.189-0.474-0.189-0.852-0.189-1.421C108.342,19.598,108.437,19.124,108.626,18.65 M109.952,20.923
	c0.095,0.284,0.189,0.474,0.284,0.758s0.379,0.379,0.568,0.474c0.189,0.095,0.474,0.189,0.852,0.189s0.663-0.095,0.852-0.189
	c0.189-0.095,0.379-0.284,0.568-0.474c0.189-0.189,0.284-0.474,0.284-0.758c0.095-0.284,0.095-0.568,0.095-0.852
	s0-0.568-0.095-0.852c-0.095-0.284-0.189-0.568-0.284-0.758s-0.379-0.379-0.568-0.568c-0.189-0.095-0.474-0.189-0.852-0.189
	s-0.663,0.095-0.852,0.189c-0.189,0.095-0.379,0.284-0.568,0.568c-0.189,0.284-0.284,0.474-0.284,0.758
	c-0.095,0.284-0.095,0.568-0.095,0.852S109.857,20.639,109.952,20.923"/>
<polygon style="fill:#FFFFFF;" points="117.624,16.661 120.465,21.208 120.465,16.661 121.886,16.661 121.886,23.481 120.37,23.481
	117.529,18.935 117.529,23.481 116.108,23.481 116.108,16.661 "/>
<path style="fill:#FFFFFF;" d="M61.176,38.54c-3.031,2.273-6.44,3.41-10.134,3.694c-6.062,0.474-11.365-1.326-15.911-5.493
	c2.084,0.852,4.073,1.8,6.251,2.462c2.178,0.568,4.451,1.042,6.724,1.137c2.273,0.095,4.546,0,6.724-0.379
	c2.178-0.379,3.883-1.61,5.967-2.273C60.797,37.782,61.176,38.445,61.176,38.54"/>
<path style="fill:#FFFFFF;" d="M61.744,40.908c0.284-0.852,0.568-1.705,0.758-2.652c0.189-0.947-0.095-1.326-1.042-1.421h-2.747
	c0,0,0.095-0.189,0.189-0.284c1.326-0.663,2.747-0.852,4.167-0.474c0.284,0.095,0.568,0.474,0.568,0.663
	C63.638,38.445,63.165,39.866,61.744,40.908"/>
<path style="fill:#FFFFFF;" d="M51.042,17.04c0.189,0.095,0.474,0.189,0.663,0.284c2.841,0.663,4.167,2.368,4.167,5.304
	c0,2.084-0.095,4.073,0,6.156c0.095,1.137,0.474,2.178,0.947,3.22c0.284,0.663,0.474,1.137-0.284,1.61
	c-0.284,0.189-0.474,0.379-0.663,0.568c-1.989,1.8-1.989,1.8-3.599-0.379c-0.095-0.095-0.189-0.284-0.379-0.379
	c-3.41,3.504-9.187,2.936-10.134-1.61v-2.273c1.421-4.83,5.588-4.736,9.471-5.304v-1.326c0-1.137-0.474-1.989-1.61-2.273
	c-1.136-0.284-2.557,0.189-2.841,1.326c-0.379,1.326-1.136,1.231-2.178,1.042c-0.474-0.095-1.042-0.189-1.515-0.189
	c-0.663-0.095-0.852-0.379-0.663-1.042c0.474-1.8,1.515-3.031,3.126-3.788c0.852-0.379,1.8-0.568,2.652-0.852
	C49.242,17.04,50.189,17.04,51.042,17.04 M51.61,26.417c-1.515,0.379-2.652,0.568-3.694,1.042c-1.137,0.474-1.515,1.894-1.231,3.22
	c0.189,0.947,0.758,1.515,1.705,1.61c1.326,0.095,2.178-0.758,2.557-1.894C51.326,29.258,51.326,28.027,51.61,26.417"/>
</svg>
