<?xml version="1.0" encoding="iso-8859-1"?>
<!-- Generator: Adobe Illustrator 19.0.0, SVG Export Plug-In . SVG Version: 6.00 Build 0)  -->
<svg version="1.1" xmlns="http://www.w3.org/2000/svg" xmlns:xlink="http://www.w3.org/1999/xlink" x="0px" y="0px"
	 viewBox="0 0 8 8" xml:space="preserve">
<g style="opacity:0.6;">
	<path style="fill:none;" d="M0,0h8v8H0V0z"/>
	<path style="fill:#010101;" d="M5.333,0.333h-4c-0.367,0-0.667,0.3-0.667,0.667v4.667h0.667V1h4V0.333z M6.333,1.667H2.667
		C2.3,1.667,2,1.967,2,2.333V7c0,0.367,0.3,0.667,0.667,0.667h3.667C6.7,7.667,7,7.367,7,7V2.333C7,1.967,6.7,1.667,6.333,1.667z
		 M6.333,7H2.667V2.333h3.667V7z"/>
	<path style="fill:none;" d="M0,0h8v8H0V0z"/>
</g>
</svg>
