<svg width="24" height="24" viewBox="0 0 24 24" xmlns="http://www.w3.org/2000/svg"><title>7C1D2A5E-C920-41EE-9C7D-7BC82012687E</title><path d="M12 1C5.925 1 1 5.925 1 12c0 6.074 4.925 11 11 11 6.074 0 11-4.926 11-11 0-6.075-4.926-11-11-11zm2.29 17.048c-.567.223-1.017.393-1.356.51-.337.117-.729.176-1.175.176-.685 0-1.219-.168-1.599-.502a1.62 1.62 0 0 1-.569-1.273c0-.2.014-.405.042-.613.03-.21.075-.444.137-.707l.709-2.503c.062-.24.116-.469.16-.681.042-.214.062-.41.062-.59 0-.318-.066-.542-.197-.667-.133-.126-.384-.187-.757-.187-.183 0-.37.027-.563.083-.191.06-.357.112-.493.164l.187-.77a17.65 17.65 0 0 1 1.332-.486A3.934 3.934 0 0 1 11.41 9.8c.68 0 1.206.166 1.576.494.367.328.553.756.553 1.281 0 .109-.013.3-.038.575a3.845 3.845 0 0 1-.142.755l-.705 2.495c-.058.2-.109.43-.155.686a3.624 3.624 0 0 0-.068.583c0 .331.073.558.222.678.147.12.405.18.77.18.173 0 .365-.03.583-.09.216-.06.373-.113.471-.158l-.189.77zm-.125-10.13a1.682 1.682 0 0 1-1.188.458 1.7 1.7 0 0 1-1.192-.458 1.463 1.463 0 0 1-.496-1.11c0-.434.168-.806.496-1.115.332-.309.73-.462 1.192-.462.463 0 .86.153 1.188.462.328.309.493.681.493 1.114 0 .435-.165.806-.493 1.111z" fill-rule="nonzero" fill="#FFF"/></svg>