<svg width="90" height="86" viewBox="0 0 90 86" xmlns="http://www.w3.org/2000/svg" xmlns:xlink="http://www.w3.org/1999/xlink"><title>4BCC9F3B-1D83-4C1B-8A4C-B2370F68202F</title><defs><rect id="a" x="32" width="26" height="26" rx="5"/><mask id="e" x="0" y="0" width="26" height="26" fill="#fff"><use xlink:href="#a"/></mask><rect id="b" x="32" y="32" width="26" height="26" rx="5"/><mask id="f" x="0" y="0" width="26" height="26" fill="#fff"><use xlink:href="#b"/></mask><rect id="c" y="32" width="26" height="26" rx="5"/><mask id="g" x="0" y="0" width="26" height="26" fill="#fff"><use xlink:href="#c"/></mask><rect id="d" x="64" y="32" width="26" height="26" rx="5"/><mask id="h" x="0" y="0" width="26" height="26" fill="#fff"><use xlink:href="#d"/></mask></defs><g fill="none" fill-rule="evenodd"><path d="M48.532 77.31h-6v3.423h6v-3.424zm6 0h23.506v-3.136c0-1.105.745-1.5 1.663-.882l6.61 4.441c.916.616.938 1.65.044 2.305l-6.698 4.911c-.904.663-1.619.291-1.619-.814v-3.402H54.532v-3.424zm-18 0H11.974v-3.136c0-1.105-.745-1.5-1.663-.882L3.7 77.733c-.916.616-.938 1.65-.044 2.305l6.698 4.911c.904.663 1.619.291 1.619-.814v-3.402h24.558v-3.424z" fill="#000" fill-rule="nonzero"/><g><use stroke="#000" mask="url(#e)" stroke-width="6" xlink:href="#a"/><use stroke="#000" mask="url(#f)" stroke-width="6" xlink:href="#b"/><use stroke="#000" mask="url(#g)" stroke-width="6" fill="#28B5F5" xlink:href="#c"/><use stroke="#000" mask="url(#h)" stroke-width="6" fill="#28B5F5" xlink:href="#d"/><path d="M75.5 41.5l4 3.5-4 3.5zM14.5 41.5l-4 3.5 4 3.5zM48.5 15L45 11l-3.5 4zM48.5 44L45 48l-3.5-4z" fill="#000"/></g></g></svg>