<?xml version="1.0" encoding="iso-8859-1"?>
<!-- Generator: Adobe Illustrator 19.0.0, SVG Export Plug-In . SVG Version: 6.00 Build 0)  -->
<svg version="1.1" xmlns="http://www.w3.org/2000/svg" xmlns:xlink="http://www.w3.org/1999/xlink" x="0px" y="0px"
	 viewBox="0 0 67.814 40.994" xml:space="preserve">
<g>
	<g>
		<path style="fill:#17B2FF;" d="M0,15.404h4.611c3.074,0,5.155,0.119,6.244,0.356c1.088,0.237,1.975,0.843,2.661,1.819
			c0.686,0.975,1.029,2.531,1.029,4.668c0,1.95-0.242,3.262-0.727,3.932c-0.485,0.671-1.439,1.074-2.863,1.208
			c1.289,0.32,2.156,0.748,2.599,1.285c0.444,0.537,0.719,1.029,0.828,1.479c0.108,0.449,0.162,1.685,0.162,3.707v6.61h-6.05V32.14
			c0-1.342-0.106-2.173-0.318-2.492c-0.211-0.32-0.766-0.48-1.663-0.48v11.301H0V15.404z M6.515,19.693v5.573
			c0.732,0,1.246-0.1,1.539-0.302c0.294-0.201,0.441-0.854,0.441-1.958v-1.378c0-0.795-0.142-1.316-0.426-1.564
			C7.786,19.816,7.267,19.693,6.515,19.693z"/>
		<path style="fill:#17B2FF;" d="M31.954,30.08c0,2.518-0.06,4.301-0.178,5.349c-0.119,1.048-0.49,2.005-1.114,2.872
			c-0.624,0.867-1.468,1.532-2.53,1.997c-1.063,0.465-2.301,0.697-3.714,0.697c-1.341,0-2.545-0.219-3.613-0.658
			c-1.067-0.439-1.926-1.096-2.576-1.974c-0.65-0.877-1.037-1.832-1.161-2.864c-0.124-1.032-0.186-2.838-0.186-5.418v-4.288
			c0-2.518,0.059-4.301,0.178-5.349c0.118-1.048,0.49-2.005,1.114-2.872c0.624-0.867,1.467-1.533,2.53-1.997
			c1.062-0.464,2.3-0.697,3.714-0.697c1.341,0,2.545,0.22,3.613,0.658c1.068,0.438,1.926,1.096,2.576,1.974
			c0.65,0.877,1.037,1.832,1.16,2.864c0.124,1.032,0.186,2.838,0.186,5.418V30.08z M25.439,21.844c0-1.166-0.065-1.912-0.193-2.237
			c-0.129-0.325-0.394-0.488-0.797-0.488c-0.34,0-0.601,0.131-0.781,0.395c-0.181,0.263-0.271,1.04-0.271,2.33v11.704
			c0,1.455,0.059,2.353,0.178,2.694c0.118,0.34,0.395,0.51,0.828,0.51c0.443,0,0.727-0.196,0.851-0.588
			c0.124-0.392,0.185-1.326,0.185-2.802V21.844z"/>
		<path style="fill:#17B2FF;" d="M63.721,26.721l3.737-11.317h-6.112l-2.901,9.738v-9.738h-2.641
			c-0.739,1.09-2.131,1.969-3.874,2.454v22.609h6.515V29.724l2.638,10.744h6.731L63.721,26.721z"/>
		<path style="fill:#17B2FF;" d="M48.795,18.273c-3.461-0.004-6.375-1.436-7.275-3.389c-1.301,0.029-2.461,0.266-3.478,0.714
			c-1.088,0.48-1.94,1.138-2.553,1.974c-0.614,0.836-0.982,1.706-1.106,2.609c-0.124,0.903-0.185,2.258-0.185,4.064v7.322
			c0,2.457,0.201,4.296,0.603,5.519c0.402,1.223,1.222,2.18,2.46,2.872c1.238,0.691,2.811,1.037,4.72,1.037
			c1.836,0,3.381-0.408,4.635-1.225c1.253-0.816,2.063-1.767,2.429-2.853c0.366-1.085,0.549-2.925,0.549-5.519v-0.977h-6.515v3.15
			c0,1.376-0.075,2.25-0.225,2.623c-0.149,0.373-0.467,0.558-0.951,0.558c-0.505,0-0.831-0.185-0.975-0.557
			c-0.145-0.372-0.217-1.167-0.217-2.384V22.169c0-1.269,0.072-2.095,0.217-2.477c0.144-0.382,0.485-0.573,1.021-0.573
			c0.475,0,0.782,0.158,0.921,0.471c0.139,0.314,0.209,1.105,0.209,2.371v4.356h6.515v-2.381c0-2.339-0.196-4.063-0.588-5.171
			C48.946,18.597,48.875,18.433,48.795,18.273z"/>
	</g>
	<g>
		<path style="fill:#FFFFFF;" d="M0,0.274h2.669v1.223C3.126,0.995,3.633,0.62,4.191,0.372C4.748,0.124,5.357,0,6.016,0
			c0.665,0,1.265,0.163,1.8,0.489c0.535,0.326,0.965,0.802,1.292,1.428c0.424-0.626,0.944-1.102,1.56-1.428
			C11.284,0.163,11.958,0,12.688,0c0.757,0,1.422,0.176,1.996,0.528c0.574,0.352,0.987,0.812,1.238,1.379
			c0.251,0.567,0.377,1.49,0.377,2.769v6.242H13.61V5.518c0-1.206-0.15-2.023-0.45-2.451c-0.3-0.427-0.749-0.641-1.349-0.641
			c-0.457,0-0.866,0.131-1.227,0.391c-0.362,0.261-0.631,0.621-0.806,1.081c-0.176,0.46-0.264,1.198-0.264,2.216v4.804H6.825V5.762
			c0-0.952-0.071-1.642-0.211-2.069C6.473,3.266,6.263,2.948,5.982,2.739C5.701,2.531,5.361,2.426,4.963,2.426
			c-0.445,0-0.848,0.132-1.21,0.396c-0.363,0.264-0.634,0.634-0.813,1.11c-0.18,0.476-0.27,1.226-0.27,2.25v4.735H0V0.274z"/>
		<path style="fill:#FFFFFF;" d="M26.692,0.274h2.669v10.645h-2.669V9.793c-0.521,0.496-1.043,0.853-1.567,1.071
			c-0.524,0.218-1.092,0.328-1.704,0.328c-1.374,0-2.562-0.533-3.565-1.6c-1.003-1.066-1.504-2.392-1.504-3.977
			c0-1.644,0.485-2.991,1.455-4.041C20.777,0.525,21.955,0,23.342,0c0.638,0,1.237,0.121,1.797,0.362
			c0.56,0.241,1.077,0.604,1.553,1.086V0.274z M23.886,2.465c-0.825,0-1.511,0.292-2.056,0.876
			c-0.546,0.584-0.818,1.332-0.818,2.245c0,0.92,0.278,1.676,0.833,2.27c0.556,0.593,1.239,0.89,2.051,0.89
			c0.838,0,1.533-0.292,2.085-0.876c0.552-0.584,0.828-1.348,0.828-2.294c0-0.926-0.276-1.676-0.828-2.25
			C25.429,2.752,24.73,2.465,23.886,2.465z"/>
		<path style="fill:#FFFFFF;" d="M32.059,0.274h2.669v1.091c0.605-0.51,1.154-0.865,1.645-1.065C36.865,0.1,37.368,0,37.882,0
			c1.054,0,1.949,0.369,2.685,1.105c0.618,0.626,0.928,1.552,0.928,2.778v7.034h-2.64V6.257c0-1.27-0.057-2.114-0.171-2.531
			c-0.114-0.417-0.312-0.735-0.595-0.953c-0.283-0.218-0.632-0.328-1.048-0.328c-0.54,0-1.003,0.181-1.39,0.542
			c-0.387,0.362-0.655,0.862-0.805,1.5c-0.078,0.332-0.117,1.052-0.117,2.159v4.271h-2.669V0.274z"/>
		<path style="fill:#FFFFFF;" d="M51.936,0.274h2.66v9.118c0,1.8-0.362,3.124-1.085,3.972c-0.971,1.148-2.435,1.722-4.39,1.722
			c-1.043,0-1.92-0.131-2.63-0.391c-0.71-0.261-1.31-0.644-1.799-1.15c-0.489-0.506-0.85-1.12-1.085-1.844h2.943
			c0.261,0.3,0.596,0.526,1.007,0.68c0.411,0.153,0.896,0.23,1.457,0.23c0.717,0,1.294-0.111,1.73-0.333
			c0.437-0.222,0.745-0.509,0.924-0.861c0.179-0.352,0.269-0.959,0.269-1.82c-0.469,0.47-0.962,0.807-1.476,1.013
			c-0.515,0.205-1.098,0.308-1.75,0.308c-1.428,0-2.633-0.515-3.618-1.546c-0.984-1.031-1.476-2.335-1.476-3.914
			c0-1.689,0.521-3.046,1.564-4.07C46.125,0.463,47.253,0,48.563,0c0.612,0,1.191,0.112,1.735,0.337
			c0.544,0.225,1.09,0.595,1.638,1.11V0.274z M49.169,2.495c-0.841,0-1.535,0.282-2.083,0.847c-0.547,0.564-0.821,1.273-0.821,2.128
			c0,0.887,0.28,1.614,0.841,2.182c0.56,0.567,1.264,0.851,2.112,0.851c0.828,0,1.51-0.277,2.048-0.832
			c0.538-0.554,0.807-1.281,0.807-2.182c0-0.887-0.271-1.608-0.812-2.162C50.721,2.772,50.023,2.495,49.169,2.495z"/>
		<path style="fill:#FFFFFF;" d="M65.145,0.274h2.669v10.645h-2.669V9.793c-0.521,0.496-1.044,0.853-1.567,1.071
			c-0.524,0.218-1.092,0.328-1.704,0.328c-1.374,0-2.562-0.533-3.565-1.6c-1.002-1.066-1.504-2.392-1.504-3.977
			c0-1.644,0.485-2.991,1.455-4.041C59.23,0.525,60.409,0,61.795,0c0.638,0,1.237,0.121,1.797,0.362
			c0.56,0.241,1.077,0.604,1.553,1.086V0.274z M62.339,2.465c-0.825,0-1.511,0.292-2.056,0.876
			c-0.546,0.584-0.819,1.332-0.819,2.245c0,0.92,0.278,1.676,0.833,2.27c0.555,0.593,1.239,0.89,2.051,0.89
			c0.838,0,1.533-0.292,2.086-0.876c0.552-0.584,0.828-1.348,0.828-2.294c0-0.926-0.276-1.676-0.828-2.25
			C63.882,2.752,63.184,2.465,62.339,2.465z"/>
	</g>
</g>
</svg>
