<?xml version="1.0" encoding="iso-8859-1"?>
<!-- Generator: Adobe Illustrator 19.0.0, SVG Export Plug-In . SVG Version: 6.00 Build 0)  -->
<svg version="1.1" xmlns="http://www.w3.org/2000/svg" xmlns:xlink="http://www.w3.org/1999/xlink" x="0px" y="0px"
	 viewBox="10 10 100 100" xml:space="preserve">
<g>
	<path style="fill:#FFFFFF;" d="M120,101.25c0,10.312-8.438,18.75-18.75,18.75h-82.5C8.438,120,0,111.562,0,101.25v-82.5
		C0,8.437,8.438,0,18.75,0h82.5C111.563,0,120,8.437,120,18.75V101.25z"/>
	<g>
		<g>
			<path style="fill:#E6E6E5;" d="M15.956,55.533h6.02c4.013,0,6.73,0.155,8.151,0.465c1.421,0.31,2.579,1.101,3.474,2.375
				c0.895,1.273,1.343,3.305,1.343,6.094c0,2.547-0.316,4.258-0.949,5.134c-0.633,0.876-1.879,1.402-3.737,1.577
				c1.683,0.417,2.815,0.977,3.394,1.678c0.579,0.701,0.939,1.344,1.081,1.931c0.142,0.586,0.212,2.2,0.212,4.841v8.631h-7.898
				V77.384c0-1.752-0.138-2.837-0.415-3.254c-0.276-0.418-0.999-0.627-2.171-0.627v14.755h-8.505V55.533z M24.461,61.132v7.277
				c0.956,0,1.626-0.131,2.01-0.394c0.384-0.263,0.576-1.115,0.576-2.557v-1.799c0-1.037-0.186-1.718-0.556-2.041
				C26.12,61.293,25.444,61.132,24.461,61.132z"/>
			<path style="fill:#E6E6E5;" d="M57.672,74.695c0,3.288-0.078,5.616-0.233,6.983c-0.155,1.368-0.64,2.618-1.454,3.75
				c-0.815,1.132-1.916,2.001-3.303,2.607c-1.387,0.607-3.003,0.91-4.848,0.91c-1.75,0-3.323-0.286-4.717-0.859
				c-1.393-0.573-2.515-1.431-3.363-2.577c-0.848-1.146-1.354-2.392-1.515-3.74c-0.162-1.348-0.242-3.706-0.242-7.074v-5.599
				c0-3.288,0.077-5.616,0.232-6.983c0.155-1.368,0.639-2.618,1.454-3.75c0.815-1.132,1.915-2.001,3.303-2.608
				c1.387-0.606,3.003-0.91,4.848-0.91c1.751,0,3.323,0.287,4.717,0.86c1.394,0.573,2.515,1.432,3.364,2.577
				c0.849,1.146,1.353,2.392,1.515,3.74c0.162,1.347,0.243,3.706,0.243,7.074V74.695z M49.167,63.942
				c0-1.523-0.084-2.496-0.252-2.921c-0.169-0.424-0.515-0.637-1.04-0.637c-0.444,0-0.785,0.172-1.02,0.516
				c-0.236,0.344-0.354,1.357-0.354,3.042v15.281c0,1.9,0.077,3.073,0.232,3.517c0.154,0.444,0.515,0.666,1.081,0.666
				c0.579,0,0.949-0.255,1.111-0.768c0.161-0.512,0.242-1.731,0.242-3.658V63.942z"/>
			<path style="fill:#E6E6E5;" d="M99.144,70.309l4.879-14.776h-7.98l-3.787,12.714V55.533h-3.448
				c-0.965,1.423-2.781,2.57-5.057,3.205v29.52h8.505V74.23L95.7,88.258h8.788L99.144,70.309z"/>
			<path style="fill:#E6E6E5;" d="M79.659,59.279c-4.518-0.005-8.322-1.875-9.497-4.425c-1.698,0.038-3.213,0.347-4.541,0.932
				c-1.421,0.626-2.532,1.485-3.333,2.577c-0.801,1.092-1.283,2.227-1.444,3.406c-0.162,1.179-0.242,2.948-0.242,5.306v9.561
				c0,3.208,0.262,5.609,0.788,7.206c0.525,1.597,1.596,2.847,3.212,3.75c1.616,0.902,3.67,1.354,6.161,1.354
				c2.397,0,4.414-0.533,6.05-1.599c1.636-1.066,2.693-2.307,3.171-3.725c0.478-1.417,0.717-3.818,0.717-7.206V75.14h-8.505v4.113
				c0,1.797-0.098,2.938-0.293,3.425c-0.195,0.486-0.609,0.729-1.242,0.729c-0.66,0-1.084-0.242-1.273-0.727
				c-0.189-0.485-0.283-1.523-0.283-3.113v-15.2c0-1.657,0.094-2.735,0.283-3.234c0.188-0.498,0.633-0.748,1.333-0.748
				c0.619,0,1.02,0.206,1.202,0.615c0.182,0.41,0.273,1.442,0.273,3.096v5.687h8.505v-3.108c0-3.055-0.256-5.305-0.768-6.752
				C79.855,59.702,79.763,59.488,79.659,59.279z"/>
		</g>
		<g>
			<g id="XMLID_101_">
				<path id="XMLID_113_" style="fill:#E6E6E5;" d="M15.956,35.778h3.485v1.597c0.596-0.656,1.258-1.145,1.986-1.469
					c0.728-0.323,1.522-0.485,2.382-0.485c0.869,0,1.652,0.213,2.35,0.639c0.698,0.426,1.26,1.047,1.686,1.865
					c0.553-0.818,1.232-1.439,2.037-1.865c0.805-0.426,1.684-0.639,2.638-0.639c0.988,0,1.856,0.23,2.605,0.69
					c0.75,0.46,1.288,1.06,1.616,1.801c0.328,0.741,0.492,1.946,0.492,3.615v8.15h-3.51v-7.051c0-1.575-0.196-2.642-0.588-3.2
					c-0.391-0.558-0.978-0.837-1.761-0.837c-0.596,0-1.13,0.171-1.602,0.511c-0.472,0.341-0.823,0.811-1.053,1.411
					c-0.23,0.6-0.345,1.565-0.345,2.893v6.272h-3.51v-6.732c0-1.243-0.092-2.144-0.275-2.702c-0.184-0.558-0.458-0.973-0.825-1.245
					c-0.367-0.272-0.81-0.409-1.331-0.409c-0.58,0-1.107,0.172-1.58,0.518c-0.474,0.345-0.827,0.828-1.062,1.449
					c-0.235,0.622-0.352,1.601-0.352,2.938v6.183h-3.485V35.778z"/>
				<path id="XMLID_110_" style="fill:#E6E6E5;" d="M50.802,35.778h3.485v13.898h-3.485v-1.469c-0.68,0.647-1.362,1.113-2.046,1.399
					c-0.684,0.285-1.426,0.428-2.224,0.428c-1.793,0-3.345-0.696-4.654-2.089c-1.309-1.392-1.963-3.123-1.963-5.192
					c0-2.146,0.633-3.905,1.9-5.276c1.266-1.371,2.805-2.056,4.615-2.056c0.833,0,1.615,0.158,2.346,0.473
					c0.731,0.315,1.406,0.788,2.027,1.418V35.778z M47.139,38.639c-1.077,0-1.972,0.381-2.684,1.144
					c-0.712,0.762-1.068,1.739-1.068,2.932c0,1.201,0.362,2.189,1.087,2.963c0.725,0.775,1.618,1.162,2.678,1.162
					c1.094,0,2.002-0.381,2.722-1.143c0.721-0.762,1.081-1.761,1.081-2.995c0-1.209-0.361-2.188-1.081-2.938
					C49.153,39.014,48.242,38.639,47.139,38.639z"/>
				<path id="XMLID_108_" style="fill:#E6E6E5;" d="M57.81,35.778h3.484v1.424c0.79-0.666,1.506-1.13,2.148-1.391
					c0.641-0.26,1.298-0.391,1.969-0.391c1.376,0,2.545,0.481,3.505,1.443c0.807,0.817,1.211,2.027,1.211,3.628v9.184h-3.446V43.59
					c0-1.659-0.074-2.76-0.223-3.304c-0.149-0.544-0.408-0.959-0.777-1.244c-0.369-0.285-0.825-0.428-1.369-0.428
					c-0.705,0-1.31,0.236-1.814,0.708c-0.505,0.473-0.856,1.125-1.051,1.959c-0.102,0.434-0.153,1.374-0.153,2.819v5.576H57.81
					V35.778z"/>
				<path id="XMLID_105_" style="fill:#E6E6E5;" d="M83.759,35.778h3.472v11.905c0,2.35-0.472,4.079-1.417,5.186
					c-1.268,1.499-3.178,2.248-5.731,2.248c-1.361,0-2.506-0.171-3.433-0.511c-0.927-0.341-1.71-0.841-2.349-1.501
					c-0.638-0.66-1.11-1.463-1.417-2.408h3.842c0.34,0.392,0.779,0.687,1.315,0.888c0.537,0.2,1.17,0.3,1.902,0.3
					c0.936,0,1.689-0.145,2.259-0.434c0.57-0.29,0.972-0.664,1.206-1.124c0.234-0.46,0.351-1.252,0.351-2.376
					c-0.613,0.613-1.255,1.054-1.927,1.322c-0.672,0.268-1.434,0.402-2.285,0.402c-1.864,0-3.438-0.673-4.723-2.018
					c-1.285-1.346-1.927-3.049-1.927-5.11c0-2.205,0.681-3.976,2.042-5.314c1.234-1.209,2.706-1.814,4.417-1.814
					c0.8,0,1.555,0.147,2.265,0.441c0.71,0.294,1.423,0.777,2.138,1.45V35.778z M80.147,38.677c-1.098,0-2.004,0.369-2.719,1.105
					c-0.714,0.737-1.072,1.663-1.072,2.778c0,1.158,0.366,2.108,1.098,2.849c0.732,0.741,1.65,1.111,2.757,1.111
					c1.081,0,1.972-0.362,2.674-1.086c0.702-0.724,1.053-1.673,1.053-2.849c0-1.158-0.353-2.099-1.06-2.823
					C82.172,39.04,81.261,38.677,80.147,38.677z"/>
				<path id="XMLID_102_" style="fill:#E6E6E5;" d="M101.003,35.778h3.485v13.898h-3.485v-1.469
					c-0.68,0.647-1.362,1.113-2.046,1.399c-0.684,0.285-1.426,0.428-2.225,0.428c-1.793,0-3.345-0.696-4.654-2.089
					c-1.308-1.392-1.963-3.123-1.963-5.192c0-2.146,0.633-3.905,1.9-5.276c1.266-1.371,2.804-2.056,4.615-2.056
					c0.833,0,1.615,0.158,2.346,0.473c0.731,0.315,1.406,0.788,2.027,1.418V35.778z M97.34,38.639c-1.077,0-1.972,0.381-2.684,1.144
					c-0.712,0.762-1.069,1.739-1.069,2.932c0,1.201,0.362,2.189,1.088,2.963c0.725,0.775,1.617,1.162,2.678,1.162
					c1.094,0,2.002-0.381,2.723-1.143c0.721-0.762,1.081-1.761,1.081-2.995c0-1.209-0.36-2.188-1.081-2.938
					C99.354,39.014,98.443,38.639,97.34,38.639z"/>
			</g>
		</g>
		<g>
			<path style="fill:#4AACE1;" d="M15.956,53.232h6.02c4.013,0,6.73,0.155,8.151,0.465c1.421,0.31,2.579,1.101,3.474,2.375
				c0.895,1.273,1.343,3.305,1.343,6.094c0,2.547-0.316,4.258-0.949,5.134c-0.633,0.876-1.879,1.402-3.737,1.577
				c1.683,0.417,2.815,0.977,3.394,1.678c0.579,0.701,0.939,1.344,1.081,1.931c0.142,0.586,0.212,2.2,0.212,4.841v8.631h-7.898
				V75.082c0-1.752-0.138-2.837-0.415-3.254c-0.276-0.418-0.999-0.627-2.171-0.627v14.755h-8.505V53.232z M24.461,58.831v7.277
				c0.956,0,1.626-0.131,2.01-0.394c0.384-0.263,0.576-1.115,0.576-2.557v-1.799c0-1.037-0.186-1.718-0.556-2.041
				C26.12,58.992,25.444,58.831,24.461,58.831z"/>
			<path style="fill:#4AACE1;" d="M57.672,72.394c0,3.288-0.078,5.616-0.233,6.983c-0.155,1.368-0.64,2.618-1.454,3.75
				c-0.815,1.132-1.916,2.001-3.303,2.607c-1.387,0.607-3.003,0.91-4.848,0.91c-1.75,0-3.323-0.286-4.717-0.859
				c-1.393-0.573-2.515-1.431-3.363-2.577c-0.848-1.146-1.354-2.392-1.515-3.74c-0.162-1.348-0.242-3.706-0.242-7.074v-5.599
				c0-3.288,0.077-5.616,0.232-6.983c0.155-1.368,0.639-2.618,1.454-3.75c0.815-1.132,1.915-2.001,3.303-2.608
				c1.387-0.606,3.003-0.91,4.848-0.91c1.751,0,3.323,0.287,4.717,0.86c1.394,0.573,2.515,1.432,3.364,2.577
				c0.849,1.146,1.353,2.392,1.515,3.74c0.162,1.347,0.243,3.706,0.243,7.074V72.394z M49.167,61.64
				c0-1.523-0.084-2.496-0.252-2.921c-0.169-0.424-0.515-0.637-1.04-0.637c-0.444,0-0.785,0.172-1.02,0.516
				c-0.236,0.344-0.354,1.357-0.354,3.042v15.281c0,1.9,0.077,3.073,0.232,3.517c0.154,0.444,0.515,0.666,1.081,0.666
				c0.579,0,0.949-0.255,1.111-0.768c0.161-0.512,0.242-1.731,0.242-3.658V61.64z"/>
			<path style="fill:#4AACE1;" d="M99.144,68.007l4.879-14.776h-7.98l-3.787,12.714V53.232h-3.448
				c-0.965,1.423-2.781,2.57-5.057,3.205v29.52h8.505V71.929L95.7,85.956h8.788L99.144,68.007z"/>
			<path style="fill:#4AACE1;" d="M79.659,56.977c-4.518-0.005-8.322-1.875-9.497-4.425c-1.698,0.038-3.213,0.347-4.541,0.932
				c-1.421,0.626-2.532,1.485-3.333,2.577c-0.801,1.092-1.283,2.227-1.444,3.406c-0.162,1.179-0.242,2.948-0.242,5.306v9.561
				c0,3.208,0.262,5.609,0.788,7.206c0.525,1.597,1.596,2.847,3.212,3.75c1.616,0.902,3.67,1.354,6.161,1.354
				c2.397,0,4.414-0.533,6.05-1.599c1.636-1.066,2.693-2.307,3.171-3.725c0.478-1.417,0.717-3.818,0.717-7.206v-1.275h-8.505v4.113
				c0,1.797-0.098,2.938-0.293,3.425c-0.195,0.486-0.609,0.729-1.242,0.729c-0.66,0-1.084-0.242-1.273-0.727
				c-0.189-0.485-0.283-1.523-0.283-3.113v-15.2c0-1.657,0.094-2.735,0.283-3.234c0.188-0.498,0.633-0.748,1.333-0.748
				c0.619,0,1.02,0.206,1.202,0.615c0.182,0.41,0.273,1.442,0.273,3.096v5.687h8.505v-3.109c0-3.055-0.256-5.305-0.768-6.752
				C79.855,57.401,79.763,57.187,79.659,56.977z"/>
		</g>
		<g>
			<path style="fill:#243E8E;" d="M15.956,33.476h3.485v1.597c0.596-0.656,1.258-1.145,1.986-1.469
				c0.728-0.323,1.522-0.485,2.382-0.485c0.869,0,1.652,0.213,2.35,0.639c0.698,0.426,1.26,1.047,1.686,1.865
				c0.553-0.818,1.232-1.439,2.037-1.865c0.805-0.426,1.684-0.639,2.638-0.639c0.988,0,1.856,0.23,2.605,0.69
				c0.75,0.46,1.288,1.06,1.616,1.801c0.328,0.741,0.492,1.946,0.492,3.615v8.15h-3.51v-7.051c0-1.575-0.196-2.642-0.588-3.2
				c-0.391-0.558-0.978-0.837-1.761-0.837c-0.596,0-1.13,0.171-1.602,0.511c-0.472,0.341-0.823,0.811-1.053,1.411
				c-0.23,0.6-0.345,1.565-0.345,2.893v6.272h-3.51v-6.732c0-1.243-0.092-2.144-0.275-2.702c-0.184-0.558-0.458-0.973-0.825-1.245
				c-0.367-0.272-0.81-0.409-1.331-0.409c-0.58,0-1.107,0.172-1.58,0.518c-0.474,0.345-0.827,0.828-1.062,1.449
				c-0.235,0.622-0.352,1.601-0.352,2.938v6.183h-3.485V33.476z"/>
			<path style="fill:#243E8E;" d="M50.802,33.476h3.485v13.898h-3.485v-1.469c-0.68,0.647-1.362,1.113-2.046,1.399
				c-0.684,0.285-1.426,0.428-2.224,0.428c-1.793,0-3.345-0.696-4.654-2.089c-1.309-1.392-1.963-3.123-1.963-5.192
				c0-2.146,0.633-3.905,1.9-5.276c1.266-1.371,2.805-2.056,4.615-2.056c0.833,0,1.615,0.158,2.346,0.473
				c0.731,0.315,1.406,0.788,2.027,1.418V33.476z M47.139,36.338c-1.077,0-1.972,0.381-2.684,1.144
				c-0.712,0.762-1.068,1.739-1.068,2.932c0,1.201,0.362,2.189,1.087,2.963c0.725,0.775,1.618,1.162,2.678,1.162
				c1.094,0,2.002-0.381,2.722-1.143c0.721-0.762,1.081-1.761,1.081-2.995c0-1.209-0.361-2.188-1.081-2.938
				C49.153,36.713,48.242,36.338,47.139,36.338z"/>
			<path style="fill:#243E8E;" d="M57.81,33.476h3.484v1.424c0.79-0.666,1.506-1.13,2.148-1.391c0.641-0.26,1.298-0.391,1.969-0.391
				c1.376,0,2.545,0.481,3.505,1.443c0.807,0.817,1.211,2.027,1.211,3.628v9.184h-3.446v-6.086c0-1.659-0.074-2.76-0.223-3.304
				c-0.149-0.544-0.408-0.959-0.777-1.244c-0.369-0.285-0.825-0.428-1.369-0.428c-0.705,0-1.31,0.236-1.814,0.708
				c-0.505,0.473-0.856,1.125-1.051,1.959c-0.102,0.434-0.153,1.374-0.153,2.819v5.576H57.81V33.476z"/>
			<path style="fill:#243E8E;" d="M83.759,33.476h3.472v11.905c0,2.35-0.472,4.079-1.417,5.186
				c-1.268,1.499-3.178,2.248-5.731,2.248c-1.361,0-2.506-0.171-3.433-0.511c-0.927-0.341-1.71-0.841-2.349-1.501
				c-0.638-0.66-1.11-1.463-1.417-2.408h3.842c0.34,0.392,0.779,0.687,1.315,0.888c0.537,0.2,1.17,0.3,1.902,0.3
				c0.936,0,1.689-0.145,2.259-0.434c0.57-0.29,0.972-0.664,1.206-1.124c0.234-0.46,0.351-1.252,0.351-2.376
				c-0.613,0.613-1.255,1.054-1.927,1.322c-0.672,0.268-1.434,0.402-2.285,0.402c-1.864,0-3.438-0.673-4.723-2.018
				c-1.285-1.346-1.927-3.049-1.927-5.11c0-2.205,0.681-3.976,2.042-5.314c1.234-1.209,2.706-1.814,4.417-1.814
				c0.8,0,1.555,0.147,2.265,0.441c0.71,0.294,1.423,0.777,2.138,1.45V33.476z M80.147,36.376c-1.098,0-2.004,0.369-2.719,1.105
				c-0.714,0.737-1.072,1.663-1.072,2.778c0,1.158,0.366,2.108,1.098,2.849c0.732,0.741,1.65,1.111,2.757,1.111
				c1.081,0,1.972-0.362,2.674-1.086c0.702-0.724,1.053-1.673,1.053-2.849c0-1.158-0.353-2.099-1.06-2.823
				C82.172,36.738,81.261,36.376,80.147,36.376z"/>
			<path style="fill:#243E8E;" d="M101.003,33.476h3.485v13.898h-3.485v-1.469c-0.68,0.647-1.362,1.113-2.046,1.399
				c-0.684,0.285-1.426,0.428-2.225,0.428c-1.793,0-3.345-0.696-4.654-2.089c-1.308-1.392-1.963-3.123-1.963-5.192
				c0-2.146,0.633-3.905,1.9-5.276c1.266-1.371,2.804-2.056,4.615-2.056c0.833,0,1.615,0.158,2.346,0.473
				c0.731,0.315,1.406,0.788,2.027,1.418V33.476z M97.34,36.338c-1.077,0-1.972,0.381-2.684,1.144
				c-0.712,0.762-1.069,1.739-1.069,2.932c0,1.201,0.362,2.189,1.088,2.963c0.725,0.775,1.617,1.162,2.678,1.162
				c1.094,0,2.002-0.381,2.723-1.143c0.721-0.762,1.081-1.761,1.081-2.995c0-1.209-0.36-2.188-1.081-2.938
				C99.354,36.713,98.443,36.338,97.34,36.338z"/>
		</g>
	</g>
</g>
</svg>
