<svg width="52" height="98" viewBox="0 0 52 98" xmlns="http://www.w3.org/2000/svg"><title>DDD59A64-4506-4A36-9270-C44C83383F33</title><g transform="translate(2)" fill="none" fill-rule="evenodd"><path d="M16.022 17.322C6.688 20.525 0 29.19 0 39.38v33.242C0 85.53 10.746 96 24 96c13.257 0 24-10.466 24-23.38V39.38c0-10.178-6.676-18.837-15.995-22.048" stroke="#000" stroke-width="3" stroke-linecap="round" stroke-linejoin="round"/><rect stroke="#000" stroke-width="3" fill="#28B5F5" x="20" y="33" width="8" height="14" rx="4"/><path d="M25.65 8.546v16.498c0 .904-.733 1.642-1.637 1.642-.911 0-1.638-.735-1.638-1.642V8.546h-2.873c-1.106 0-1.495-.73-.866-1.634l4.34-6.237c.628-.902 1.638-.888 2.25.022l4.161 6.193c.615.914.22 1.656-.89 1.656H25.65zM25.65 71.147V54.648c0-.904-.733-1.642-1.637-1.642-.911 0-1.638.735-1.638 1.642v16.499h-2.873c-1.106 0-1.495.73-.866 1.633l4.34 6.237c.628.902 1.638.888 2.25-.022l4.161-6.193c.615-.914.22-1.655-.89-1.655H25.65z" fill="#000"/></g></svg>