<?xml version="1.0" encoding="iso-8859-1"?>
<!-- Generator: Adobe Illustrator 19.0.0, SVG Export Plug-In . SVG Version: 6.00 Build 0)  -->
<svg version="1.1" xmlns="http://www.w3.org/2000/svg" xmlns:xlink="http://www.w3.org/1999/xlink" x="0px" y="0px"
	 viewBox="0 0 17.62 19.152" xml:space="preserve">
<path style="fill:#989898;" d="M17.449,17.903l-4.127-5.08c1.243-1.362,2.001-3.173,2.001-5.162C15.322,3.43,11.892,0,7.661,0
	C3.43,0,0,3.43,0,7.661c0,4.231,3.43,7.661,7.661,7.661c1.69,0,3.252-0.548,4.518-1.474l4.08,5.022
	c0.151,0.186,0.372,0.283,0.595,0.283c0.17,0,0.341-0.056,0.483-0.171C17.665,18.714,17.715,18.231,17.449,17.903z M1.532,7.661
	c0-3.379,2.749-6.129,6.129-6.129s6.129,2.749,6.129,6.129S11.04,13.79,7.661,13.79S1.532,11.04,1.532,7.661z"/>
</svg>
