<svg width="24" height="24" viewBox="0 0 24 24" xmlns="http://www.w3.org/2000/svg"><title>23BBF5A6-3718-4A78-8ED1-49D6A055B406</title><path d="M24 13.546a.375.375 0 0 1-.374.374H21.2c-.78 0-1.45.447-1.748 1.167-.298.72-.141 1.51.41 2.061l1.715 1.715a.375.375 0 0 1 0 .53l-2.186 2.185a.375.375 0 0 1-.53 0l-1.714-1.715a1.863 1.863 0 0 0-2.06-.41 1.862 1.862 0 0 0-1.168 1.748v2.425a.375.375 0 0 1-.374.374h-3.092a.375.375 0 0 1-.374-.374V21.2c0-.78-.447-1.45-1.167-1.748a1.865 1.865 0 0 0-2.061.41l-1.715 1.714a.375.375 0 0 1-.53 0l-2.185-2.185a.375.375 0 0 1 0-.53l1.715-1.714a1.862 1.862 0 0 0 .41-2.061 1.862 1.862 0 0 0-1.748-1.167H.374A.375.375 0 0 1 0 13.546v-3.092c0-.206.168-.374.374-.374H2.8c.78 0 1.45-.447 1.748-1.167.298-.72.141-1.51-.41-2.061L2.422 5.137a.375.375 0 0 1 0-.53l2.186-2.185a.375.375 0 0 1 .53 0l1.714 1.714c.55.55 1.34.709 2.06.41A1.86 1.86 0 0 0 10.08 2.8V.374c0-.206.168-.374.374-.374h3.091c.207 0 .375.168.375.374V2.8c0 .78.447 1.45 1.167 1.748.721.298 1.51.14 2.061-.41l1.715-1.714a.375.375 0 0 1 .53 0l2.185 2.185a.375.375 0 0 1 0 .53l-1.715 1.714a1.862 1.862 0 0 0-.41 2.061c.299.72.968 1.167 1.748 1.167h2.425c.206 0 .374.168.374.374v3.092zM12 7.68A4.325 4.325 0 0 0 7.68 12 4.325 4.325 0 0 0 12 16.32 4.325 4.325 0 0 0 16.32 12 4.325 4.325 0 0 0 12 7.68z" fill="#FFF" fill-rule="evenodd"/></svg>