  <svg version="1.1" xmlns="http://www.w3.org/2000/svg" height="16px" viewBox="0 0 26.916 21.875">
    <g>
      <path fill="#fff" d="M26.916,2.589c-0.99,0.439-2.055,0.736-3.172,0.869c1.14-0.683,2.015-1.765,2.429-3.055c-1.067,0.633-2.249,1.092-3.507,1.34C21.659,0.671,20.223,0,18.634,0c-3.049,0-5.522,2.473-5.522,5.522c0,0.433,0.049,0.854,0.144,1.259C8.666,6.551,4.597,4.352,1.873,1.01C1.398,1.826,1.125,2.775,1.125,3.787c0,1.915,0.976,3.606,2.457,4.596C2.677,8.355,1.825,8.107,1.081,7.692C1.08,7.716,1.08,7.739,1.08,7.762c0,2.676,1.904,4.907,4.43,5.414c-0.463,0.127-0.951,0.194-1.455,0.194c-0.357,0-0.702-0.035-1.039-0.099c0.703,2.193,2.742,3.79,5.159,3.834c-1.89,1.482-4.271,2.364-6.859,2.364c-0.445,0-0.885-0.026-1.316-0.077c2.443,1.567,5.346,2.481,8.464,2.481c10.157,0,15.712-8.414,15.712-15.713c0-0.239-0.005-0.478-0.016-0.714C25.24,4.669,26.176,3.697,26.916,2.589L26.916,2.589z M26.916,2.589" />
    </g>
  </svg>