<?xml version="1.0" encoding="iso-8859-1"?>
<!-- Generator: Adobe Illustrator 19.0.0, SVG Export Plug-In . SVG Version: 6.00 Build 0)  -->
<svg version="1.1" xmlns="http://www.w3.org/2000/svg" xmlns:xlink="http://www.w3.org/1999/xlink" x="0px" y="0px"
	 viewBox="0 0 16.661 32" xml:space="preserve">
<path style="opacity:0.4;fill:#434343;" d="M16.638,5.968C16.583,5.807,16.431,5.7,16.261,5.7h-5.633l-1.92-5.433
	C8.651,0.107,8.5,0,8.33,0C8.161,0,8.01,0.107,7.953,0.267L6.033,5.7H0.4c-0.17,0-0.322,0.108-0.378,0.269
	c-0.056,0.161-0.004,0.34,0.13,0.445L4.55,9.896l-1.968,5.57c-0.056,0.159-0.006,0.336,0.124,0.443
	c0.131,0.107,0.315,0.121,0.459,0.033l5.165-3.098l5.165,3.098C13.558,15.981,13.63,16,13.701,16c0.089,0,0.18-0.03,0.253-0.09
	c0.13-0.107,0.18-0.284,0.124-0.443l-1.968-5.57l4.399-3.482C16.642,6.308,16.694,6.129,16.638,5.968z"/>
<path style="fill:#F6C21F;" d="M16.638,21.968c-0.056-0.161-0.207-0.269-0.378-0.269h-5.633l-1.92-5.433
	C8.651,16.107,8.5,16,8.33,16c-0.169,0-0.32,0.107-0.377,0.267L6.033,21.7H0.4c-0.17,0-0.322,0.108-0.378,0.269
	c-0.056,0.161-0.004,0.34,0.13,0.445l4.398,3.482l-1.968,5.57c-0.056,0.159-0.006,0.336,0.124,0.443
	c0.131,0.107,0.315,0.121,0.459,0.033l5.165-3.098l5.165,3.098C13.558,31.981,13.63,32,13.701,32c0.089,0,0.18-0.03,0.253-0.09
	c0.13-0.107,0.18-0.284,0.124-0.443l-1.968-5.57l4.399-3.482C16.642,22.308,16.694,22.129,16.638,21.968z"/>
</svg>
