<svg xmlns="http://www.w3.org/2000/svg" width="118" height="24" viewBox="0 0 118 24"><defs><linearGradient id="a" x1="91.408%" x2="-38.351%" y1="4.985%" y2="71.906%"><stop offset="0%" stop-color="#00A0FF"/><stop offset=".657%" stop-color="#00A1FF"/><stop offset="26.01%" stop-color="#00BEFF"/><stop offset="51.22%" stop-color="#00D2FF"/><stop offset="76.04%" stop-color="#00DFFF"/><stop offset="100%" stop-color="#00E3FF"/></linearGradient><linearGradient id="b" x1="107.44%" x2="-130.45%" y1="50.085%" y2="50.085%"><stop offset="0%" stop-color="#FFE000"/><stop offset="40.87%" stop-color="#FFBD00"/><stop offset="77.54%" stop-color="#FFA500"/><stop offset="100%" stop-color="#FF9C00"/></linearGradient><linearGradient id="c" x1="86.225%" x2="-50.139%" y1="17.928%" y2="194.843%"><stop offset="0%" stop-color="#FF3A44"/><stop offset="100%" stop-color="#C31162"/></linearGradient><linearGradient id="d" x1="-18.809%" x2="42.083%" y1="-54.267%" y2="24.769%"><stop offset="0%" stop-color="#32A071"/><stop offset="6.85%" stop-color="#2DA771"/><stop offset="47.62%" stop-color="#15CF74"/><stop offset="80.09%" stop-color="#06E775"/><stop offset="100%" stop-color="#00F076"/></linearGradient></defs><g fill="none"><path fill="#000" d="M56.603 9.712c-2.498 0-4.529 1.88-4.529 4.476 0 2.582 2.03 4.476 4.529 4.476 2.498 0 4.529-1.894 4.529-4.476 0-2.583-2.03-4.476-4.529-4.476zm0 7.19c-1.363 0-2.552-1.125-2.552-2.714 0-1.616 1.176-2.715 2.552-2.715 1.376 0 2.552 1.099 2.552 2.715-.014 1.589-1.19 2.714-2.552 2.714zm12.13-6.184h-.067c-.44-.53-1.296-1.006-2.378-1.006-2.257 0-4.328 1.973-4.328 4.489 0 2.503 2.07 4.463 4.328 4.463 1.082 0 1.937-.477 2.378-1.02h.067v.649c0 1.708-.922 2.622-2.405 2.622-1.215 0-1.963-.86-2.27-1.59l-1.724.716c.494 1.192 1.817 2.649 4.008 2.649 2.324 0 4.288-1.351 4.288-4.662v-8.038h-1.884l-.013.728zm-2.271 6.184c-1.363 0-2.512-1.138-2.512-2.701 0-1.576 1.15-2.728 2.512-2.728 1.35 0 2.405 1.152 2.405 2.728 0 1.576-1.056 2.701-2.405 2.701zm-19.745-7.19c-2.498 0-4.528 1.88-4.528 4.476 0 2.582 2.03 4.476 4.528 4.476 2.498 0 4.529-1.894 4.529-4.476 0-2.583-2.03-4.476-4.529-4.476zm0 7.19c-1.362 0-2.551-1.125-2.551-2.714 0-1.616 1.175-2.715 2.551-2.715 1.363 0 2.552 1.099 2.552 2.715-.013 1.589-1.19 2.714-2.552 2.714zm-11.769-5.826v1.893h4.582c-.133 1.073-.494 1.854-1.042 2.397-.668.662-1.71 1.39-3.54 1.39-2.819 0-5.023-2.25-5.023-5.045 0-2.794 2.204-5.045 5.023-5.045 1.523 0 2.632.596 3.46 1.35l1.35-1.337c-1.15-1.086-2.673-1.92-4.81-1.92-3.86 0-7.12 3.125-7.12 6.952s3.246 6.953 7.12 6.953c2.084 0 3.66-.676 4.89-1.947 1.268-1.258 1.656-3.02 1.656-4.436 0-.437-.04-.848-.107-1.192l-6.439-.013zm48.093 1.496c-.374-1.006-1.523-2.847-3.861-2.847-2.325 0-4.262 1.814-4.262 4.476 0 2.503 1.91 4.476 4.476 4.476 2.07 0 3.273-1.258 3.767-1.986l-1.536-1.02c-.508.741-1.216 1.231-2.218 1.231s-1.723-.463-2.191-1.35l6.038-2.477-.213-.503zm-6.146 1.483c-.053-1.735 1.35-2.609 2.365-2.609.788 0 1.456.384 1.67.954l-4.035 1.655zm-4.915 4.345h1.977v-13.151h-1.977v13.15zm20.36-13.15h-4.743v13.15h1.977v-4.98h2.765c2.191 0 4.356-1.575 4.356-4.092 0-2.502-2.165-4.078-4.356-4.078zm.053 6.317h-2.819v-4.504h2.819a2.292 2.292 0 0 1 2.324 2.251 2.292 2.292 0 0 1-2.324 2.252zm5.397 6.833h1.977v-13.151h-1.977v13.15zm6.84-8.714c-1.43 0-2.926.622-3.54 2.013l1.763.728c.374-.728 1.069-.966 1.804-.966 1.028 0 2.07.609 2.084 1.695v.132a4.473 4.473 0 0 0-2.071-.503c-1.897 0-3.82 1.033-3.82 2.966 0 1.762 1.549 2.887 3.299 2.887 1.336 0 2.07-.596 2.525-1.284h.067v1.02h1.91v-5.046c.013-2.33-1.75-3.642-4.021-3.642zm-.24 7.217c-.655 0-1.55-.317-1.55-1.112 0-1.02 1.122-1.404 2.097-1.404.868 0 1.283.186 1.804.437-.147 1.219-1.203 2.08-2.352 2.08zm11.234-6.926l-2.27 5.708h-.067l-2.352-5.708h-2.137l3.527 7.973-2.018 4.45h2.071l5.45-12.41h-2.204v-.013z" opacity=".54"/><path fill="url(#a)" d="M.711.746c-.267.283-.43.726-.43 1.291v20.338c0 .565.162 1.009.43 1.29l.068.068 11.402-11.4v-.268l-11.402-11.4-.068.081z"/><path fill="url(#b)" d="M15.973 16.138l-3.792-3.804v-.269l3.805-3.804.081.054 4.505 2.554c1.29.726 1.29 1.922 0 2.661l-4.505 2.554-.094.054z"/><path fill="url(#c)" d="M16.067 16.084l-3.886-3.885-11.47 11.467c.417.443 1.13.51 1.91.054l13.446-7.636"/><path fill="url(#d)" d="M16.067 8.328l-13.446-7.635c-.793-.444-1.493-.39-1.91.053l11.47 11.467 3.886-3.885z"/><path fill="#000" d="M15.973 16.004l-13.352 7.581c-.753.43-1.412.403-1.842.013l-.067.068.067.067c.43.39 1.103.417 1.842-.014l13.446-7.635-.094-.08z" opacity=".2"/><path fill="#000" d="M20.558 13.396l-4.585 2.608.081.08 4.504-2.554c.646-.363.969-.847.969-1.33-.054.443-.377.86-.969 1.196z" opacity=".12"/><path fill="#FFF" d="M2.621.814l17.937 10.189c.579.336.915.753.969 1.196 0-.484-.323-.968-.969-1.33l-17.937-10.191c-1.29-.725-2.34-.118-2.34 1.345v.135c0-1.465 1.05-2.07 2.34-1.344z" opacity=".25"/></g></svg>